<?xml version="1.0" encoding="UTF-8"?>
<!DOCTYPE svg PUBLIC "-//W3C//DTD SVG 1.1//EN" "http://www.w3.org/Graphics/SVG/1.1/DTD/svg11.dtd">
<svg xmlns="http://www.w3.org/2000/svg" version="1.1" width="512px" height="512px" style="shape-rendering:geometricPrecision; text-rendering:geometricPrecision; image-rendering:optimizeQuality; fill-rule:evenodd; clip-rule:evenodd" xmlns:xlink="http://www.w3.org/1999/xlink">
<g><path style="opacity:1" fill="#25851b" d="M 296.5,301.5 C 301.316,300.674 306.316,300.174 311.5,300C 307.947,294.385 304.28,288.885 300.5,283.5C 310.5,283.5 320.5,283.5 330.5,283.5C 330.333,269.829 330.5,256.163 331,242.5C 334.371,239.297 337.538,235.964 340.5,232.5C 342.5,231.167 344.167,229.5 345.5,227.5C 347.167,226.5 348.5,225.167 349.5,223.5C 350.833,222.833 351.833,221.833 352.5,220.5C 353.793,218.704 355.293,217.037 357,215.5C 357.667,214.5 357.667,213.5 357,212.5C 347.964,203.632 339.131,194.632 330.5,185.5C 330.5,171.833 330.5,158.167 330.5,144.5C 316.5,144.5 302.5,144.5 288.5,144.5C 287.5,143.167 286.5,141.833 285.5,140.5C 280.11,134.108 274.11,128.441 267.5,123.5C 264.832,121.664 262.666,119.331 261,116.5C 251.632,126.036 242.132,135.369 232.5,144.5C 230.5,144.5 228.5,144.5 226.5,144.5C 224.361,138.748 222.027,133.081 219.5,127.5C 221.735,127.795 223.735,127.461 225.5,126.5C 236.812,114.521 248.479,102.854 260.5,91.5C 272.319,102.819 283.986,114.319 295.5,126C 312.833,126.333 330.167,126.667 347.5,127C 348.326,144.093 348.826,161.26 349,178.5C 360.333,189.833 371.667,201.167 383,212.5C 383.667,213.5 383.667,214.5 383,215.5C 371.389,226.109 360.056,237.109 349,248.5C 348.667,265.833 348.333,283.167 348,300.5C 330.91,301.492 313.744,301.825 296.5,301.5 Z"/></g>
<g><path style="opacity:0.796" fill="#96c591" d="M 267.5,123.5 C 274.11,128.441 280.11,134.108 285.5,140.5C 278.89,135.559 272.89,129.892 267.5,123.5 Z"/></g>
<g><path style="opacity:0.69" fill="#f5ce7d" d="M 225.5,126.5 C 223.735,127.461 221.735,127.795 219.5,127.5C 204.5,127.5 189.5,127.5 174.5,127.5C 174.83,144.675 174.497,161.675 173.5,178.5C 173.5,161.167 173.5,143.833 173.5,126.5C 190.833,126.5 208.167,126.5 225.5,126.5 Z"/></g>
<g><path style="opacity:1" fill="#f9ab1c" d="M 219.5,127.5 C 222.027,133.081 224.361,138.748 226.5,144.5C 214.5,144.5 202.5,144.5 190.5,144.5C 190.5,158.5 190.5,172.5 190.5,186.5C 181.702,195.798 172.702,204.965 163.5,214C 172.667,223.167 181.833,232.333 191,241.5C 191.5,255.163 191.667,268.829 191.5,282.5C 205.171,282.333 218.837,282.5 232.5,283C 241.754,292.758 251.421,301.925 261.5,310.5C 271.246,302.258 280.579,293.425 289.5,284C 293.152,283.501 296.818,283.335 300.5,283.5C 304.28,288.885 307.947,294.385 311.5,300C 306.316,300.174 301.316,300.674 296.5,301.5C 284.521,313.145 272.521,324.812 260.5,336.5C 248.479,325.146 236.812,313.479 225.5,301.5C 208.675,300.503 191.675,300.17 174.5,300.5C 174.83,283.325 174.497,266.325 173.5,249.5C 173.611,248.883 173.944,248.383 174.5,248C 163.333,236.833 152.167,225.667 141,214.5C 140.617,215.056 140.117,215.389 139.5,215.5C 138.711,215.217 138.044,214.717 137.5,214C 149.368,201.965 161.368,190.131 173.5,178.5C 174.497,161.675 174.83,144.675 174.5,127.5C 189.5,127.5 204.5,127.5 219.5,127.5 Z"/></g>
<g><path style="opacity:0.851" fill="#eccc79" d="M 226.5,144.5 C 228.5,144.5 230.5,144.5 232.5,144.5C 219.01,145.496 205.344,145.829 191.5,145.5C 191.178,158.413 191.511,171.246 192.5,184C 191.934,184.995 191.267,185.828 190.5,186.5C 190.5,172.5 190.5,158.5 190.5,144.5C 202.5,144.5 214.5,144.5 226.5,144.5 Z"/></g>
<g><path style="opacity:0.541" fill="#a2cc9e" d="M 288.5,144.5 C 302.5,144.5 316.5,144.5 330.5,144.5C 330.5,158.167 330.5,171.833 330.5,185.5C 329.504,172.344 329.171,159.01 329.5,145.5C 315.656,145.829 301.99,145.496 288.5,144.5 Z"/></g>
<g><path style="opacity:0.031" fill="#fce3b8" d="M 273.5,150.5 C 272.662,150.842 272.328,151.508 272.5,152.5C 269.626,149.811 269.959,149.144 273.5,150.5 Z"/></g>
<g><path style="opacity:1" fill="#fdbc57" d="M 273.5,150.5 C 276.849,151.169 279.516,152.836 281.5,155.5C 280.167,155.5 278.833,155.5 277.5,155.5C 277.5,156.5 277.5,157.5 277.5,158.5C 276.31,156.131 274.643,154.131 272.5,152.5C 272.328,151.508 272.662,150.842 273.5,150.5 Z"/></g>
<g><path style="opacity:1" fill="#faac26" d="M 281.5,155.5 C 283.25,156.659 284.25,158.326 284.5,160.5C 284.5,164.5 284.5,168.5 284.5,172.5C 283.99,175.674 282.323,178.008 279.5,179.5C 277.833,180.167 276.167,180.833 274.5,181.5C 271.15,181.665 267.817,181.498 264.5,181C 265.416,180.722 266.082,180.222 266.5,179.5C 269.945,178.27 272.945,176.27 275.5,173.5C 276.15,173.196 276.817,172.863 277.5,172.5C 278.611,169.777 279.278,166.944 279.5,164C 279.607,161.779 278.94,159.946 277.5,158.5C 277.5,157.5 277.5,156.5 277.5,155.5C 278.833,155.5 280.167,155.5 281.5,155.5 Z"/></g>
<g><path style="opacity:0.8" fill="#fbc871" d="M 277.5,158.5 C 278.94,159.946 279.607,161.779 279.5,164C 279.278,166.944 278.611,169.777 277.5,172.5C 276.817,172.863 276.15,173.196 275.5,173.5C 276.692,170.592 277.692,167.592 278.5,164.5C 277.844,162.547 277.511,160.547 277.5,158.5 Z"/></g>
<g><path style="opacity:0.373" fill="#a6cea3" d="M 222.5,168.5 C 221.778,168.082 221.278,167.416 221,166.5C 220.768,167.737 220.268,168.737 219.5,169.5C 219.5,168.167 219.5,166.833 219.5,165.5C 220.5,165.5 221.5,165.5 222.5,165.5C 222.5,166.5 222.5,167.5 222.5,168.5 Z"/></g>
<g><path style="opacity:1" fill="#fbc66d" d="M 284.5,160.5 C 287.167,164.5 287.167,168.5 284.5,172.5C 284.5,168.5 284.5,164.5 284.5,160.5 Z"/></g>
<g><path style="opacity:1" fill="#24851b" d="M 222.5,168.5 C 222.414,169.496 222.748,170.329 223.5,171C 226.547,171.516 228.88,173.016 230.5,175.5C 230.427,177.027 231.094,178.027 232.5,178.5C 232.5,181.833 232.5,185.167 232.5,188.5C 232.5,189.167 232.167,189.5 231.5,189.5C 224.5,189.5 217.5,189.5 210.5,189.5C 207.5,184.003 208.166,178.836 212.5,174C 215.314,172.946 217.647,171.446 219.5,169.5C 220.268,168.737 220.768,167.737 221,166.5C 221.278,167.416 221.778,168.082 222.5,168.5 Z"/></g>
<g><path style="opacity:0.545" fill="#98c393" d="M 230.5,175.5 C 231.906,175.973 232.573,176.973 232.5,178.5C 231.094,178.027 230.427,177.027 230.5,175.5 Z"/></g>
<g><path style="opacity:0.905" fill="#fdc96e" d="M 266.5,179.5 C 266.082,180.222 265.416,180.722 264.5,181C 267.817,181.498 271.15,181.665 274.5,181.5C 274.5,181.833 274.5,182.167 274.5,182.5C 269.926,183.654 265.593,182.987 261.5,180.5C 263.045,179.548 264.712,179.215 266.5,179.5 Z"/></g>
<g><path style="opacity:0.886" fill="#87bc82" d="M 232.5,178.5 C 233.306,179.997 233.972,181.664 234.5,183.5C 233.972,185.336 233.306,187.003 232.5,188.5C 232.5,185.167 232.5,181.833 232.5,178.5 Z"/></g>
<g><path style="opacity:1" fill="#1c8214" d="M 279.5,179.5 C 280.5,184.833 281.5,190.167 282.5,195.5C 282.415,196.995 283.081,197.995 284.5,198.5C 286.409,197.652 288.409,197.318 290.5,197.5C 294.355,200.36 298.188,203.36 302,206.5C 302.986,205.829 304.153,205.829 305.5,206.5C 306.5,206.833 307.167,207.5 307.5,208.5C 307.427,210.027 308.094,211.027 309.5,211.5C 311.924,214.008 313.59,217.008 314.5,220.5C 314.41,223.152 315.076,225.485 316.5,227.5C 318.635,237.636 316.635,246.97 310.5,255.5C 300.833,255.5 291.167,255.5 281.5,255.5C 270.637,240.771 261.137,225.105 253,208.5C 252.252,206.16 252.752,204.16 254.5,202.5C 256.336,200.412 258.669,199.079 261.5,198.5C 265.78,198.301 269.447,196.968 272.5,194.5C 272.5,194.167 272.5,193.833 272.5,193.5C 274.163,191.562 274.829,189.228 274.5,186.5C 274.5,185.167 274.5,183.833 274.5,182.5C 274.5,182.167 274.5,181.833 274.5,181.5C 276.167,180.833 277.833,180.167 279.5,179.5 Z"/></g>
<g><path style="opacity:1" fill="#72b26d" d="M 210.5,189.5 C 217.5,189.5 224.5,189.5 231.5,189.5C 231.5,189.833 231.5,190.167 231.5,190.5C 223.933,191.196 216.266,191.863 208.5,192.5C 208.782,191.222 209.449,190.222 210.5,189.5 Z"/></g>
<g><path style="opacity:1" fill="#72b16a" d="M 274.5,186.5 C 274.829,189.228 274.163,191.562 272.5,193.5C 272.721,190.933 273.388,188.599 274.5,186.5 Z"/></g>
<g><path style="opacity:0.341" fill="#94c490" d="M 207.5,192.5 C 207.5,193.5 207.5,194.5 207.5,195.5C 208.791,195.263 209.791,195.596 210.5,196.5C 209.167,196.5 207.833,196.5 206.5,196.5C 206.232,194.901 206.566,193.568 207.5,192.5 Z"/></g>
<g><path style="opacity:0.929" fill="#7db777" d="M 272.5,194.5 C 269.447,196.968 265.78,198.301 261.5,198.5C 264.955,196.791 268.621,195.458 272.5,194.5 Z"/></g>
<g><path style="opacity:1" fill="#5ea253" d="M 282.5,195.5 C 285.428,195.565 288.095,196.232 290.5,197.5C 288.409,197.318 286.409,197.652 284.5,198.5C 283.081,197.995 282.415,196.995 282.5,195.5 Z"/></g>
<g><path style="opacity:1" fill="#239b19" d="M 211.5,196.5 C 214.5,196.5 217.5,196.5 220.5,196.5C 220.5,202.5 220.5,208.5 220.5,214.5C 217.5,214.5 214.5,214.5 211.5,214.5C 211.5,208.5 211.5,202.5 211.5,196.5 Z"/></g>
<g><path style="opacity:0.773" fill="#6bb964" d="M 210.5,196.5 C 210.833,196.5 211.167,196.5 211.5,196.5C 211.5,202.5 211.5,208.5 211.5,214.5C 210.833,214.5 210.167,214.5 209.5,214.5C 210.455,208.591 210.789,202.591 210.5,196.5 Z"/></g>
<g><path style="opacity:1" fill="#4e9843" d="M 290.5,197.5 C 296.305,199.233 301.305,202.233 305.5,206.5C 304.153,205.829 302.986,205.829 302,206.5C 298.188,203.36 294.355,200.36 290.5,197.5 Z"/></g>
<g><path style="opacity:1" fill="#279c1e" d="M 254.5,202.5 C 252.752,204.16 252.252,206.16 253,208.5C 261.137,225.105 270.637,240.771 281.5,255.5C 269.167,255.5 256.833,255.5 244.5,255.5C 242.076,252.992 240.41,249.992 239.5,246.5C 238.343,238.455 238.343,230.121 239.5,221.5C 241.926,213.08 246.926,206.747 254.5,202.5 Z"/></g>
<g><path style="opacity:0.588" fill="#9ac995" d="M 307.5,208.5 C 308.906,208.973 309.573,209.973 309.5,211.5C 308.094,211.027 307.427,210.027 307.5,208.5 Z"/></g>
<g><path style="opacity:0.757" fill="#91c38c" d="M 352.5,220.5 C 351.833,221.833 350.833,222.833 349.5,223.5C 349.5,221.5 350.5,220.5 352.5,220.5 Z"/></g>
<g><path style="opacity:0.788" fill="#8cc087" d="M 349.5,223.5 C 348.5,225.167 347.167,226.5 345.5,227.5C 345.833,225.167 347.167,223.833 349.5,223.5 Z"/></g>
<g><path style="opacity:1" fill="#238419" d="M 231.5,190.5 C 234.776,191.122 236.109,193.122 235.5,196.5C 234.5,196.5 233.5,196.5 232.5,196.5C 232.334,202.176 232.501,207.843 233,213.5C 235.901,215.33 237.068,217.996 236.5,221.5C 236.984,224.575 235.984,226.909 233.5,228.5C 232.501,241.817 232.167,255.15 232.5,268.5C 228.5,268.5 224.5,268.5 220.5,268.5C 220.5,255.167 220.5,241.833 220.5,228.5C 217.5,228.5 214.5,228.5 211.5,228.5C 211.167,228.5 210.833,228.5 210.5,228.5C 207.06,227.551 205.726,225.218 206.5,221.5C 206.667,219.833 206.833,218.167 207,216.5C 207.417,215.244 208.25,214.577 209.5,214.5C 210.167,214.5 210.833,214.5 211.5,214.5C 214.5,214.5 217.5,214.5 220.5,214.5C 220.5,208.5 220.5,202.5 220.5,196.5C 217.5,196.5 214.5,196.5 211.5,196.5C 211.167,196.5 210.833,196.5 210.5,196.5C 209.791,195.596 208.791,195.263 207.5,195.5C 207.5,194.5 207.5,193.5 207.5,192.5C 207.833,192.5 208.167,192.5 208.5,192.5C 216.266,191.863 223.933,191.196 231.5,190.5 Z"/></g>
<g><path style="opacity:1" fill="#ecac15" d="M 228.5,215.5 C 230.017,215.511 231.184,216.177 232,217.5C 232.498,220.482 232.665,223.482 232.5,226.5C 230.5,226.5 228.5,226.5 226.5,226.5C 226.01,222.513 226.676,218.846 228.5,215.5 Z"/></g>
<g><path style="opacity:1" fill="#eaab15" d="M 212.5,215.5 C 213.583,215.539 214.583,215.873 215.5,216.5C 216.487,219.768 216.82,223.102 216.5,226.5C 214.5,226.5 212.5,226.5 210.5,226.5C 210.01,222.513 210.676,218.846 212.5,215.5 Z"/></g>
<g><path style="opacity:1" fill="#faaf15" d="M 220.5,215.5 C 221.822,215.33 222.989,215.663 224,216.5C 224.498,219.817 224.665,223.15 224.5,226.5C 222.833,226.5 221.167,226.5 219.5,226.5C 219.244,222.731 219.577,219.064 220.5,215.5 Z"/></g>
<g><path style="opacity:0.78" fill="#74b16e" d="M 314.5,220.5 C 315.924,222.515 316.59,224.848 316.5,227.5C 315.076,225.485 314.41,223.152 314.5,220.5 Z"/></g>
<g><path style="opacity:1" fill="#f9b13b" d="M 173.5,249.5 C 161.833,238.5 150.5,227.167 139.5,215.5C 140.117,215.389 140.617,215.056 141,214.5C 152.167,225.667 163.333,236.833 174.5,248C 173.944,248.383 173.611,248.883 173.5,249.5 Z"/></g>
<g><path style="opacity:0.62" fill="#7ec177" d="M 239.5,221.5 C 238.343,230.121 238.343,238.455 239.5,246.5C 235.66,238.152 235.66,229.819 239.5,221.5 Z"/></g>
<g><path style="opacity:1" fill="#229b19" d="M 211.5,228.5 C 214.5,228.5 217.5,228.5 220.5,228.5C 220.5,241.833 220.5,255.167 220.5,268.5C 217.5,268.5 214.5,268.5 211.5,268.5C 211.5,255.167 211.5,241.833 211.5,228.5 Z"/></g>
<g><path style="opacity:0.78" fill="#95c590" d="M 345.5,227.5 C 344.167,229.5 342.5,231.167 340.5,232.5C 341.167,229.833 342.833,228.167 345.5,227.5 Z"/></g>
<g><path style="opacity:0.541" fill="#9bc997" d="M 340.5,232.5 C 337.538,235.964 334.371,239.297 331,242.5C 330.5,256.163 330.333,269.829 330.5,283.5C 320.5,283.5 310.5,283.5 300.5,283.5C 300.5,283.167 300.5,282.833 300.5,282.5C 310.167,282.5 319.833,282.5 329.5,282.5C 329.333,268.829 329.5,255.163 330,241.5C 333.098,237.893 336.598,234.893 340.5,232.5 Z"/></g>
<g><path style="opacity:0.024" fill="#e2e3b9" d="M 244.5,255.5 C 256.833,255.5 269.167,255.5 281.5,255.5C 291.167,255.5 300.833,255.5 310.5,255.5C 312.607,256.468 314.941,256.802 317.5,256.5C 317.81,259.713 317.477,262.713 316.5,265.5C 316.5,265.167 316.5,264.833 316.5,264.5C 316.5,262.167 316.5,259.833 316.5,257.5C 290.833,257.5 265.167,257.5 239.5,257.5C 241.167,256.833 242.833,256.167 244.5,255.5 Z"/></g>
<g><path style="opacity:1" fill="#faa914" d="M 239.5,257.5 C 265.167,257.5 290.833,257.5 316.5,257.5C 316.5,259.833 316.5,262.167 316.5,264.5C 290.833,264.5 265.167,264.5 239.5,264.5C 239.5,262.167 239.5,259.833 239.5,257.5 Z"/></g>
<g><path style="opacity:0.494" fill="#fdd893" d="M 239.5,257.5 C 239.5,259.833 239.5,262.167 239.5,264.5C 265.167,264.5 290.833,264.5 316.5,264.5C 316.5,264.833 316.5,265.167 316.5,265.5C 316.5,265.833 316.5,266.167 316.5,266.5C 315.833,266.5 315.167,266.5 314.5,266.5C 290.167,265.167 265.833,265.167 241.5,266.5C 240.833,266.5 240.167,266.5 239.5,266.5C 238.225,263.396 238.225,260.396 239.5,257.5 Z"/></g>
<g><path style="opacity:0.616" fill="#85c37f" d="M 210.5,228.5 C 210.833,228.5 211.167,228.5 211.5,228.5C 211.5,241.833 211.5,255.167 211.5,268.5C 214.5,268.5 217.5,268.5 220.5,268.5C 224.5,268.5 228.5,268.5 232.5,268.5C 225.352,269.492 218.019,269.825 210.5,269.5C 210.5,255.833 210.5,242.167 210.5,228.5 Z"/></g>
<g><path style="opacity:0.545" fill="#fcd387" d="M 239.5,266.5 C 239.5,268.833 239.5,271.167 239.5,273.5C 265.167,273.5 290.833,273.5 316.5,273.5C 316.5,271.167 316.5,268.833 316.5,266.5C 317.473,268.948 317.806,271.615 317.5,274.5C 291.167,274.5 264.833,274.5 238.5,274.5C 238.194,271.615 238.527,268.948 239.5,266.5 Z"/></g>
<g><path style="opacity:1" fill="#faa914" d="M 239.5,266.5 C 240.167,266.5 240.833,266.5 241.5,266.5C 265.833,266.5 290.167,266.5 314.5,266.5C 315.167,266.5 315.833,266.5 316.5,266.5C 316.5,268.833 316.5,271.167 316.5,273.5C 290.833,273.5 265.167,273.5 239.5,273.5C 239.5,271.167 239.5,268.833 239.5,266.5 Z"/></g>
<g><path style="opacity:0.89" fill="#f4d084" d="M 300.5,282.5 C 300.5,282.833 300.5,283.167 300.5,283.5C 296.818,283.335 293.152,283.501 289.5,284C 280.579,293.425 271.246,302.258 261.5,310.5C 270.298,301.202 279.298,292.035 288.5,283C 292.486,282.501 296.486,282.334 300.5,282.5 Z"/></g>
<g><path style="opacity:0.102" fill="#f6d592" d="M 173.5,249.5 C 174.497,266.325 174.83,283.325 174.5,300.5C 191.675,300.17 208.675,300.503 225.5,301.5C 208.167,301.5 190.833,301.5 173.5,301.5C 173.5,284.167 173.5,266.833 173.5,249.5 Z"/></g>
<g><path style="opacity:1" fill="#2c8822" d="M 289.5,361.5 C 290.925,355.868 294.092,354.535 299,357.5C 300.668,363.493 298.502,365.993 292.5,365C 291.364,363.855 290.364,362.688 289.5,361.5 Z"/></g>
<g><path style="opacity:0.993" fill="#faae21" d="M 129.5,358.5 C 140.329,358.496 144.829,363.829 143,374.5C 142.31,377.196 140.81,379.363 138.5,381C 134.696,382.05 130.863,382.884 127,383.5C 126.667,387.167 126.333,390.833 126,394.5C 124.135,396.673 121.969,397.007 119.5,395.5C 118.334,385.517 118.168,375.517 119,365.5C 121.334,361.26 124.834,358.927 129.5,358.5 Z M 128.5,365.5 C 130.792,365.244 132.959,365.577 135,366.5C 137.646,373.782 134.979,377.115 127,376.5C 126.013,372.525 126.513,368.859 128.5,365.5 Z"/></g>
<g><path style="opacity:0.95" fill="#228619" d="M 289.5,361.5 C 289.822,363.722 289.155,365.556 287.5,367C 284.854,367.497 282.187,367.664 279.5,367.5C 279.666,376.506 279.5,385.506 279,394.5C 276.333,397.167 273.667,397.167 271,394.5C 270.184,385.588 270.35,376.755 271.5,368C 268.5,367.667 265.5,367.333 262.5,367C 260.964,365.401 260.464,363.567 261,361.5C 265.414,360.199 270.081,359.532 275,359.5C 280.082,359.557 284.915,360.224 289.5,361.5 Z"/></g>
<g><path style="opacity:1" fill="#faae1e" d="M 146.5,369.5 C 149.365,369.055 151.865,369.722 154,371.5C 156.497,369.522 159.331,369.022 162.5,370C 164.602,371.733 164.935,373.733 163.5,376C 160.5,376.833 157.5,377.667 154.5,378.5C 153.714,383.781 153.214,389.115 153,394.5C 150.667,397.167 148.333,397.167 146,394.5C 145.199,386.088 145.366,377.755 146.5,369.5 Z"/></g>
<g><path style="opacity:1" fill="#faaf25" d="M 168.5,369.5 C 182.744,367.914 188.577,374.248 186,388.5C 183.202,395.648 178.036,398.148 170.5,396C 163.483,393.218 161.817,388.551 165.5,382C 169.567,379.989 173.9,378.989 178.5,379C 178.043,378.586 177.709,378.086 177.5,377.5C 173.878,376.675 170.211,376.175 166.5,376C 165.261,373.298 165.927,371.132 168.5,369.5 Z M 174.5,384.5 C 175.833,384.5 177.167,384.5 178.5,384.5C 178.8,387.244 177.633,388.911 175,389.5C 170.553,388.365 170.386,386.698 174.5,384.5 Z"/></g>
<g><path style="opacity:0.996" fill="#faae22" d="M 222.5,369.5 C 225.85,369.335 229.183,369.502 232.5,370C 239.096,373.914 240.096,378.914 235.5,385C 231.971,386.466 228.305,387.466 224.5,388C 228.085,389.313 231.752,389.813 235.5,389.5C 237.753,392.233 237.086,394.4 233.5,396C 218.644,397.805 212.81,391.305 216,376.5C 217.018,372.985 219.185,370.652 222.5,369.5 Z M 226.5,375.5 C 229.473,375.965 230.64,377.632 230,380.5C 227.959,381.423 225.792,381.756 223.5,381.5C 223.461,378.911 224.461,376.911 226.5,375.5 Z"/></g>
<g><path style="opacity:1" fill="#faae25" d="M 189.5,369.5 C 191.467,369.261 193.301,369.594 195,370.5C 197.61,376.053 199.943,381.719 202,387.5C 203.954,382.017 204.954,376.351 205,370.5C 207.642,368.941 209.975,369.275 212,371.5C 213.573,380.276 211.406,387.942 205.5,394.5C 207.671,399.883 206.338,404.05 201.5,407C 197.5,407.667 193.5,407.667 189.5,407C 187.398,405.267 187.065,403.267 188.5,401C 191.482,400.502 194.482,400.335 197.5,400.5C 194.872,391.118 191.538,381.952 187.5,373C 187.978,371.697 188.645,370.531 189.5,369.5 Z"/></g>
<g><path style="opacity:0.994" fill="#faae20" d="M 243.5,369.5 C 246.079,369.083 248.246,369.75 250,371.5C 252.917,369.607 256.084,369.107 259.5,370C 262.164,372.355 261.997,374.522 259,376.5C 256.273,377.063 253.607,377.73 251,378.5C 250.667,383.833 250.333,389.167 250,394.5C 248.135,396.673 245.969,397.007 243.5,395.5C 242.198,386.774 242.198,378.108 243.5,369.5 Z"/></g>
<g><path style="opacity:0.869" fill="#29881e" d="M 291.5,369.5 C 293.527,369.338 295.527,369.505 297.5,370C 298.126,370.75 298.626,371.584 299,372.5C 299.667,379.5 299.667,386.5 299,393.5C 296.822,397.065 294.156,397.399 291,394.5C 290.227,386.118 290.394,377.785 291.5,369.5 Z"/></g>
<g><path style="opacity:0.952" fill="#1f8516" d="M 333.5,394.5 C 334.12,388.074 333.453,382.074 331.5,376.5C 329.856,376.286 328.356,376.62 327,377.5C 326.667,383.167 326.333,388.833 326,394.5C 323.667,397.167 321.333,397.167 319,394.5C 318.667,389.167 318.333,383.833 318,378.5C 314.624,375.562 312.457,376.396 311.5,381C 312.85,385.84 312.684,390.673 311,395.5C 308.408,396.982 306.075,396.648 304,394.5C 303.116,387.418 303.449,380.418 305,373.5C 308.743,369.741 313.243,368.574 318.5,370C 320.333,370.5 321.5,371.667 322,373.5C 325.743,369.741 330.243,368.574 335.5,370C 338.953,371.728 340.786,374.562 341,378.5C 341.667,383.5 341.667,388.5 341,393.5C 340.521,395.646 339.188,396.646 337,396.5C 335.301,396.613 334.134,395.947 333.5,394.5 Z"/></g>
<g><path style="opacity:0.996" fill="#228519" d="M 349.5,393.5 C 349.617,391.516 348.95,389.85 347.5,388.5C 346.508,384.217 346.174,379.884 346.5,375.5C 348.774,371.192 352.44,369.192 357.5,369.5C 365.479,369.643 368.979,373.643 368,381.5C 367.535,382.931 366.701,384.097 365.5,385C 361.886,386.32 358.219,387.487 354.5,388.5C 358.229,389.222 361.895,389.555 365.5,389.5C 366.76,391.353 366.76,393.186 365.5,395C 359.786,397.328 354.452,396.828 349.5,393.5 Z M 355.5,375.5 C 359.143,375.943 360.477,377.776 359.5,381C 357.527,381.495 355.527,381.662 353.5,381.5C 353.253,379.142 353.919,377.142 355.5,375.5 Z"/></g>
<g><path style="opacity:1" fill="#25861c" d="M 377.5,369.5 C 381.182,369.335 384.848,369.501 388.5,370C 392.372,372.76 392.205,375.26 388,377.5C 385.804,376.91 383.638,376.243 381.5,375.5C 380.692,375.808 380.025,376.308 379.5,377C 383.213,379.073 386.88,381.239 390.5,383.5C 392.933,389.423 391.267,393.589 385.5,396C 382.167,396.667 378.833,396.667 375.5,396C 372.125,394.971 370.958,392.804 372,389.5C 375.743,388.859 379.577,388.859 383.5,389.5C 383.5,388.5 383.5,387.5 383.5,386.5C 375.284,386.455 371.451,382.455 372,374.5C 373.406,372.256 375.239,370.59 377.5,369.5 Z"/></g>
<g><path style="opacity:0.262" fill="#70ab6c" d="M 331.5,376.5 C 333.453,382.074 334.12,388.074 333.5,394.5C 332.795,388.601 332.128,382.601 331.5,376.5 Z"/></g>
<g><path style="opacity:0.898" fill="#4a9741" d="M 346.5,375.5 C 346.174,379.884 346.508,384.217 347.5,388.5C 348.95,389.85 349.617,391.516 349.5,393.5C 347.827,392.657 346.66,391.324 346,389.5C 344.143,384.657 344.309,379.99 346.5,375.5 Z"/></g>
</svg>
