<?xml version="1.0" encoding="UTF-8"?>
<!DOCTYPE svg PUBLIC "-//W3C//DTD SVG 1.1//EN" "http://www.w3.org/Graphics/SVG/1.1/DTD/svg11.dtd">
<svg xmlns="http://www.w3.org/2000/svg" version="1.1" width="1500px" height="1500px" style="shape-rendering:geometricPrecision; text-rendering:geometricPrecision; image-rendering:optimizeQuality; fill-rule:evenodd; clip-rule:evenodd" xmlns:xlink="http://www.w3.org/1999/xlink">
<g><path style="opacity:1" fill="#198212" d="M 767.5,269.5 C 801.117,304.784 835.45,339.451 870.5,373.5C 919.664,374.499 968.997,374.832 1018.5,374.5C 1017.84,424.178 1018.5,473.511 1020.5,522.5C 1054.08,557.583 1088.25,592.25 1123,626.5C 1123.48,627.448 1123.65,628.448 1123.5,629.5C 1089.5,664.167 1055.17,698.5 1020.5,732.5C 1019.83,732.5 1019.5,732.833 1019.5,733.5C 1018.5,782.33 1018.17,831.33 1018.5,880.5C 983.833,880.5 949.167,880.5 914.5,880.5C 914.5,879.833 914.167,879.5 913.5,879.5C 912.488,878.128 911.488,876.795 910.5,875.5C 905.241,865.976 899.241,856.976 892.5,848.5C 889.923,842.34 886.59,836.673 882.5,831.5C 911.407,831.829 940.24,831.495 969,830.5C 969.5,791.168 969.667,751.835 969.5,712.5C 996.798,684.701 1024.3,657.035 1052,629.5C 1052.84,627.537 1052.34,626.204 1050.5,625.5C 1048.83,621.833 1046.17,619.167 1042.5,617.5C 1041.83,614.833 1040.17,613.167 1037.5,612.5C 1037.5,610.5 1036.5,609.5 1034.5,609.5C 1033.27,606.026 1030.94,603.693 1027.5,602.5C 1026.83,599.833 1025.17,598.167 1022.5,597.5C 1021.5,597.167 1020.83,596.5 1020.5,595.5C 1020.5,593.5 1019.5,592.5 1017.5,592.5C 1017.17,589.5 1015.5,587.833 1012.5,587.5C 1012.5,585.5 1011.5,584.5 1009.5,584.5C 1008.5,584.167 1007.83,583.5 1007.5,582.5C 1007.5,580.5 1006.5,579.5 1004.5,579.5C 1004.17,576.5 1002.5,574.833 999.5,574.5C 998.833,571.833 997.167,570.167 994.5,569.5C 993.833,566.833 992.167,565.167 989.5,564.5C 988.5,564.167 987.833,563.5 987.5,562.5C 987.5,560.5 986.5,559.5 984.5,559.5C 983.5,559.167 982.833,558.5 982.5,557.5C 982.5,555.5 981.5,554.5 979.5,554.5C 979.5,552.5 978.5,551.5 976.5,551.5C 975.5,551.167 974.833,550.5 974.5,549.5C 973.627,547.114 972.127,545.114 970,543.5C 969.833,503.665 969.333,463.998 968.5,424.5C 928.833,424.5 889.167,424.5 849.5,424.5C 847.167,422.833 845.167,420.833 843.5,418.5C 843.5,416.5 842.5,415.5 840.5,415.5C 839.271,412.026 836.938,409.693 833.5,408.5C 833.5,406.5 832.5,405.5 830.5,405.5C 828.833,401.833 826.167,399.167 822.5,397.5C 821.167,394.167 818.833,391.833 815.5,390.5C 814.5,390.167 813.833,389.5 813.5,388.5C 813.5,386.5 812.5,385.5 810.5,385.5C 809.5,385.167 808.833,384.5 808.5,383.5C 807.5,380.5 805.5,378.5 802.5,377.5C 801.5,377.167 800.833,376.5 800.5,375.5C 800.5,373.5 799.5,372.5 797.5,372.5C 796.5,372.167 795.833,371.5 795.5,370.5C 793.833,366.833 791.167,364.167 787.5,362.5C 786.167,359.167 783.833,356.833 780.5,355.5C 780.5,353.5 779.5,352.5 777.5,352.5C 776.5,352.167 775.833,351.5 775.5,350.5C 775.5,348.5 774.5,347.5 772.5,347.5C 771.833,344.833 770.167,343.167 767.5,342.5C 766.947,340.448 765.947,340.115 764.5,341.5C 764.5,342.167 764.167,342.5 763.5,342.5C 762.5,342.833 761.833,343.5 761.5,344.5C 761.167,345.5 760.5,346.167 759.5,346.5C 757.5,347.833 755.833,349.5 754.5,351.5C 753.5,351.833 752.833,352.5 752.5,353.5C 752.5,354.167 752.167,354.5 751.5,354.5C 749.833,355.5 748.5,356.833 747.5,358.5C 747.5,359.167 747.167,359.5 746.5,359.5C 743.833,361.5 741.5,363.833 739.5,366.5C 739.167,367.5 738.5,368.167 737.5,368.5C 735.5,369.833 733.833,371.5 732.5,373.5C 732.5,374.167 732.167,374.5 731.5,374.5C 729.5,375.833 727.833,377.5 726.5,379.5C 725.5,379.833 724.833,380.5 724.5,381.5C 722.167,383.167 720.167,385.167 718.5,387.5C 716.5,388.833 714.833,390.5 713.5,392.5C 713.167,393.5 712.5,394.167 711.5,394.5C 710.5,394.833 709.833,395.5 709.5,396.5C 707.5,397.833 705.833,399.5 704.5,401.5C 702.5,402.833 700.833,404.5 699.5,406.5C 698.167,407.167 697.167,408.167 696.5,409.5C 694.5,410.833 692.833,412.5 691.5,414.5C 688.833,416.5 686.5,418.833 684.5,421.5C 684.5,422.167 684.167,422.5 683.5,422.5C 677.925,423.452 672.259,423.786 666.5,423.5C 666.672,422.508 666.338,421.842 665.5,421.5C 659.044,405.256 652.044,389.256 644.5,373.5C 650.176,373.666 655.843,373.499 661.5,373C 695.833,338.667 730.167,304.333 764.5,270C 765.448,269.517 766.448,269.351 767.5,269.5 Z"/></g>
<g><path style="opacity:0.522" fill="#a0cb9c" d="M 767.5,269.5 C 801.965,303.465 836.299,337.632 870.5,372C 920.335,372.167 970.002,372.667 1019.5,373.5C 969.833,373.5 920.167,373.5 870.5,373.5C 835.45,339.451 801.117,304.784 767.5,269.5 Z"/></g>
<g><path style="opacity:0.384" fill="#a8cfa5" d="M 767.5,269.5 C 766.448,269.351 765.448,269.517 764.5,270C 730.167,304.333 695.833,338.667 661.5,373C 655.843,373.499 650.176,373.666 644.5,373.5C 644.5,373.167 644.5,372.833 644.5,372.5C 649.844,372.666 655.177,372.499 660.5,372C 694.833,337.667 729.167,303.333 763.5,269C 765.066,268.235 766.399,268.402 767.5,269.5 Z"/></g>
<g><path style="opacity:0.545" fill="#9cc998" d="M 764.5,341.5 C 765.947,340.115 766.947,340.448 767.5,342.5C 766.609,341.89 765.609,341.557 764.5,341.5 Z"/></g>
<g><path style="opacity:1" fill="#89be83" d="M 767.5,342.5 C 770.167,343.167 771.833,344.833 772.5,347.5C 770.5,346.167 768.833,344.5 767.5,342.5 Z"/></g>
<g><path style="opacity:0.035" fill="#b6d7b3" d="M 763.5,342.5 C 763.5,343.833 762.833,344.5 761.5,344.5C 761.833,343.5 762.5,342.833 763.5,342.5 Z"/></g>
<g><path style="opacity:1" fill="#86bc81" d="M 772.5,347.5 C 774.5,347.5 775.5,348.5 775.5,350.5C 774.167,349.833 773.167,348.833 772.5,347.5 Z"/></g>
<g><path style="opacity:0.035" fill="#bddbbb" d="M 759.5,346.5 C 758.833,349.167 757.167,350.833 754.5,351.5C 755.833,349.5 757.5,347.833 759.5,346.5 Z"/></g>
<g><path style="opacity:0.016" fill="#b8d8b5" d="M 754.5,351.5 C 754.5,352.833 753.833,353.5 752.5,353.5C 752.833,352.5 753.5,351.833 754.5,351.5 Z"/></g>
<g><path style="opacity:1" fill="#8abf84" d="M 777.5,352.5 C 779.5,352.5 780.5,353.5 780.5,355.5C 779.167,354.833 778.167,353.833 777.5,352.5 Z"/></g>
<g><path style="opacity:1" fill="#88bd82" d="M 780.5,355.5 C 783.833,356.833 786.167,359.167 787.5,362.5C 784.833,360.5 782.5,358.167 780.5,355.5 Z"/></g>
<g><path style="opacity:0.016" fill="#c0dcbe" d="M 751.5,354.5 C 751.167,356.833 749.833,358.167 747.5,358.5C 748.5,356.833 749.833,355.5 751.5,354.5 Z"/></g>
<g><path style="opacity:1" fill="#87bd81" d="M 787.5,362.5 C 791.167,364.167 793.833,366.833 795.5,370.5C 792.5,368.167 789.833,365.5 787.5,362.5 Z"/></g>
<g><path style="opacity:0.035" fill="#bedbbb" d="M 746.5,359.5 C 745.167,362.833 742.833,365.167 739.5,366.5C 741.5,363.833 743.833,361.5 746.5,359.5 Z"/></g>
<g><path style="opacity:0.016" fill="#c1ddbf" d="M 737.5,368.5 C 736.833,371.167 735.167,372.833 732.5,373.5C 733.833,371.5 735.5,369.833 737.5,368.5 Z"/></g>
<g><path style="opacity:1" fill="#89be83" d="M 797.5,372.5 C 799.5,372.5 800.5,373.5 800.5,375.5C 799.167,374.833 798.167,373.833 797.5,372.5 Z"/></g>
<g><path style="opacity:1" fill="#faaa16" d="M 644.5,373.5 C 652.044,389.256 659.044,405.256 665.5,421.5C 631.345,423.165 597.012,424.165 562.5,424.5C 561.667,464.331 561.167,504.331 561,544.5C 533.986,571.68 506.82,598.68 479.5,625.5C 478.224,626.614 478.224,627.614 479.5,628.5C 479.369,629.239 479.536,629.906 480,630.5C 486.423,637.428 493.256,643.762 500.5,649.5C 513.578,664.081 527.245,678.248 541.5,692C 542.094,692.464 542.761,692.631 543.5,692.5C 546.833,697.833 551.167,702.167 556.5,705.5C 557.373,707.886 558.873,709.886 561,711.5C 561.167,751.335 561.667,791.002 562.5,830.5C 601.998,831.333 641.665,831.833 681.5,832C 683.114,834.127 685.114,835.627 687.5,836.5C 707.247,857.749 727.58,878.582 748.5,899C 749.094,899.464 749.761,899.631 750.5,899.5C 751.167,902.167 752.833,903.833 755.5,904.5C 757.557,908.067 760.223,911.234 763.5,914C 764.833,914.667 766.167,914.667 767.5,914C 794.833,886.667 822.167,859.333 849.5,832C 860.495,831.5 871.495,831.333 882.5,831.5C 886.59,836.673 889.923,842.34 892.5,848.5C 894.006,854.178 896.506,859.178 900,863.5C 901,865.833 902.667,867.5 905,868.5C 905.173,872.163 907.007,874.496 910.5,875.5C 911.488,876.795 912.488,878.128 913.5,879.5C 899.167,880.167 884.833,880.833 870.5,881.5C 870.167,882.167 869.833,882.833 869.5,883.5C 853.5,900.167 837.167,916.5 820.5,932.5C 819.5,932.833 818.833,933.5 818.5,934.5C 816.167,937.5 813.5,940.167 810.5,942.5C 809.5,942.833 808.833,943.5 808.5,944.5C 798.5,955.167 788.167,965.5 777.5,975.5C 776.5,975.833 775.833,976.5 775.5,977.5C 772.679,981.666 769.012,984.666 764.5,986.5C 731.085,951.584 697.085,917.084 662.5,883C 661.906,882.536 661.239,882.369 660.5,882.5C 611.511,880.505 562.178,879.838 512.5,880.5C 512.832,830.997 512.499,781.664 511.5,732.5C 477.201,697.701 442.701,663.035 408,628.5C 407.53,627.423 407.697,626.423 408.5,625.5C 443.167,591.5 477.5,557.167 511.5,522.5C 511.333,473.166 511.5,423.832 512,374.5C 556.094,373.503 600.261,373.17 644.5,373.5 Z"/></g>
<g><path style="opacity:0.172" fill="#f6e4b8" d="M 644.5,372.5 C 644.5,372.833 644.5,373.167 644.5,373.5C 600.261,373.17 556.094,373.503 512,374.5C 511.5,423.832 511.333,473.166 511.5,522.5C 511.167,522.5 510.833,522.5 510.5,522.5C 510.333,472.832 510.5,423.166 511,373.5C 555.428,372.503 599.928,372.17 644.5,372.5 Z"/></g>
<g><path style="opacity:1" fill="#6cae66" d="M 870.5,373.5 C 920.167,373.5 969.833,373.5 1019.5,373.5C 1020.5,422.997 1020.83,472.664 1020.5,522.5C 1018.5,473.511 1017.84,424.178 1018.5,374.5C 968.997,374.832 919.664,374.499 870.5,373.5 Z"/></g>
<g><path style="opacity:0.035" fill="#bcdab9" d="M 731.5,374.5 C 730.833,377.167 729.167,378.833 726.5,379.5C 727.833,377.5 729.5,375.833 731.5,374.5 Z"/></g>
<g><path style="opacity:1" fill="#88bd83" d="M 802.5,377.5 C 805.5,378.5 807.5,380.5 808.5,383.5C 806.167,381.833 804.167,379.833 802.5,377.5 Z"/></g>
<g><path style="opacity:0.016" fill="#b9d8b6" d="M 726.5,379.5 C 726.5,380.833 725.833,381.5 724.5,381.5C 724.833,380.5 725.5,379.833 726.5,379.5 Z"/></g>
<g><path style="opacity:0.051" fill="#bedbbc" d="M 724.5,381.5 C 723.5,384.5 721.5,386.5 718.5,387.5C 720.167,385.167 722.167,383.167 724.5,381.5 Z"/></g>
<g><path style="opacity:1" fill="#87bd82" d="M 810.5,385.5 C 812.5,385.5 813.5,386.5 813.5,388.5C 812.167,387.833 811.167,386.833 810.5,385.5 Z"/></g>
<g><path style="opacity:0.051" fill="#bcdaba" d="M 718.5,387.5 C 717.833,390.167 716.167,391.833 713.5,392.5C 714.833,390.5 716.5,388.833 718.5,387.5 Z"/></g>
<g><path style="opacity:1" fill="#88bd82" d="M 815.5,390.5 C 818.833,391.833 821.167,394.167 822.5,397.5C 819.833,395.5 817.5,393.167 815.5,390.5 Z"/></g>
<g><path style="opacity:0.016" fill="#b8d8b5" d="M 711.5,394.5 C 711.5,395.833 710.833,396.5 709.5,396.5C 709.833,395.5 710.5,394.833 711.5,394.5 Z"/></g>
<g><path style="opacity:1" fill="#86bc80" d="M 822.5,397.5 C 826.167,399.167 828.833,401.833 830.5,405.5C 827.5,403.167 824.833,400.5 822.5,397.5 Z"/></g>
<g><path style="opacity:0.016" fill="#c2ddbf" d="M 709.5,396.5 C 708.833,399.167 707.167,400.833 704.5,401.5C 705.833,399.5 707.5,397.833 709.5,396.5 Z"/></g>
<g><path style="opacity:0.035" fill="#bedbbb" d="M 704.5,401.5 C 703.833,404.167 702.167,405.833 699.5,406.5C 700.833,404.5 702.5,402.833 704.5,401.5 Z"/></g>
<g><path style="opacity:1" fill="#8abe84" d="M 830.5,405.5 C 832.5,405.5 833.5,406.5 833.5,408.5C 832.167,407.833 831.167,406.833 830.5,405.5 Z"/></g>
<g><path style="opacity:0.016" fill="#c0dcbd" d="M 699.5,406.5 C 699.5,408.5 698.5,409.5 696.5,409.5C 697.167,408.167 698.167,407.167 699.5,406.5 Z"/></g>
<g><path style="opacity:1" fill="#7ab573" d="M 833.5,408.5 C 836.938,409.693 839.271,412.026 840.5,415.5C 837.833,413.5 835.5,411.167 833.5,408.5 Z"/></g>
<g><path style="opacity:0.035" fill="#bedbbc" d="M 696.5,409.5 C 695.833,412.167 694.167,413.833 691.5,414.5C 692.833,412.5 694.5,410.833 696.5,409.5 Z"/></g>
<g><path style="opacity:1" fill="#86bc81" d="M 840.5,415.5 C 842.5,415.5 843.5,416.5 843.5,418.5C 842.167,417.833 841.167,416.833 840.5,415.5 Z"/></g>
<g><path style="opacity:0.051" fill="#bfdbbc" d="M 691.5,414.5 C 690.167,417.833 687.833,420.167 684.5,421.5C 686.5,418.833 688.833,416.5 691.5,414.5 Z"/></g>
<g><path style="opacity:1" fill="#e0c363" d="M 665.5,421.5 C 666.338,421.842 666.672,422.508 666.5,423.5C 666.5,423.833 666.5,424.167 666.5,424.5C 631.833,424.5 597.167,424.5 562.5,424.5C 597.012,424.165 631.345,423.165 665.5,421.5 Z"/></g>
<g><path style="opacity:1" fill="#75b470" d="M 683.5,422.5 C 683.5,423.833 682.833,424.5 681.5,424.5C 676.5,424.5 671.5,424.5 666.5,424.5C 666.5,424.167 666.5,423.833 666.5,423.5C 672.259,423.786 677.925,423.452 683.5,422.5 Z"/></g>
<g><path style="opacity:0.317" fill="#bedcbc" d="M 849.5,424.5 C 889.167,424.5 928.833,424.5 968.5,424.5C 968.5,425.167 968.5,425.833 968.5,426.5C 928.736,425.839 889.069,425.172 849.5,424.5 Z"/></g>
<g><path style="opacity:0.318" fill="#e8e3bb" d="M 562.5,424.5 C 597.167,424.5 631.833,424.5 666.5,424.5C 671.5,424.5 676.5,424.5 681.5,424.5C 642.337,425.499 603.004,425.832 563.5,425.5C 563.832,465.004 563.499,504.337 562.5,543.5C 562.5,503.833 562.5,464.167 562.5,424.5 Z"/></g>
<g><path style="opacity:1" fill="#99c795" d="M 968.5,424.5 C 969.333,463.998 969.833,503.665 970,543.5C 972.127,545.114 973.627,547.114 974.5,549.5C 972.203,547.706 970.037,545.706 968,543.5C 967.173,504.429 967.34,465.429 968.5,426.5C 968.5,425.833 968.5,425.167 968.5,424.5 Z"/></g>
<g><path style="opacity:0.51" fill="#fde5b9" d="M 804.5,443.5 C 802.488,442.986 800.488,442.82 798.5,443C 799.056,443.383 799.389,443.883 799.5,444.5C 795.732,443.321 795.732,442.321 799.5,441.5C 801.557,441.436 803.223,442.102 804.5,443.5 Z"/></g>
<g><path style="opacity:1" fill="#fbc260" d="M 804.5,443.5 C 805.167,443.5 805.833,443.5 806.5,443.5C 806.5,443.833 806.5,444.167 806.5,444.5C 803.433,444.121 802.433,445.121 803.5,447.5C 801.596,447.262 800.262,446.262 799.5,444.5C 799.389,443.883 799.056,443.383 798.5,443C 800.488,442.82 802.488,442.986 804.5,443.5 Z"/></g>
<g><path style="opacity:1" fill="#faac1c" d="M 806.5,444.5 C 809.54,446.346 812.873,447.679 816.5,448.5C 816.973,449.906 817.973,450.573 819.5,450.5C 820.539,452.531 822.205,453.864 824.5,454.5C 825.08,456.749 826.413,458.415 828.5,459.5C 828.781,463.75 830.781,466.75 834.5,468.5C 835.537,469.93 836.204,471.597 836.5,473.5C 836.565,476.428 837.232,479.095 838.5,481.5C 838.5,482.167 838.5,482.833 838.5,483.5C 838.26,491.272 837.26,498.939 835.5,506.5C 832.992,509.515 830.992,512.848 829.5,516.5C 828.557,519.109 826.89,521.109 824.5,522.5C 822.596,522.738 821.262,523.738 820.5,525.5C 820.167,526.5 819.5,527.167 818.5,527.5C 815.34,528.443 812.34,529.777 809.5,531.5C 807.62,531.229 806.287,531.896 805.5,533.5C 797.862,534.313 790.196,534.646 782.5,534.5C 778.915,532.194 774.915,530.861 770.5,530.5C 770.389,529.883 770.056,529.383 769.5,529C 773.167,528.667 776.833,528.333 780.5,528C 781.416,527.722 782.082,527.222 782.5,526.5C 785.01,526.946 787.01,526.28 788.5,524.5C 788.833,524.5 789.167,524.5 789.5,524.5C 791.967,524.245 793.967,523.245 795.5,521.5C 797.027,521.573 798.027,520.906 798.5,519.5C 802.767,518.232 805.767,515.565 807.5,511.5C 809.822,510.198 811.155,508.198 811.5,505.5C 812.906,505.027 813.573,504.027 813.5,502.5C 813.5,502.167 813.5,501.833 813.5,501.5C 815.448,499.68 816.448,497.346 816.5,494.5C 816.5,494.167 816.5,493.833 816.5,493.5C 817.222,493.082 817.722,492.416 818,491.5C 818.667,484.5 818.667,477.5 818,470.5C 817.722,469.584 817.222,468.918 816.5,468.5C 816.448,465.654 815.448,463.32 813.5,461.5C 813.771,459.62 813.104,458.287 811.5,457.5C 811.446,455.368 810.446,454.035 808.5,453.5C 808.228,450.268 806.562,448.268 803.5,447.5C 802.433,445.121 803.433,444.121 806.5,444.5 Z"/></g>
<g><path style="opacity:0.859" fill="#fad490" d="M 806.5,443.5 C 810.329,444.367 813.663,446.033 816.5,448.5C 812.873,447.679 809.54,446.346 806.5,444.5C 806.5,444.167 806.5,443.833 806.5,443.5 Z"/></g>
<g><path style="opacity:1" fill="#f2cc82" d="M 803.5,447.5 C 806.562,448.268 808.228,450.268 808.5,453.5C 806.844,451.54 805.177,449.54 803.5,447.5 Z"/></g>
<g><path style="opacity:0.106" fill="#fce1b2" d="M 816.5,448.5 C 818.027,448.427 819.027,449.094 819.5,450.5C 817.973,450.573 816.973,449.906 816.5,448.5 Z"/></g>
<g><path style="opacity:0.773" fill="#fed99a" d="M 819.5,450.5 C 821.754,451.124 823.421,452.457 824.5,454.5C 822.205,453.864 820.539,452.531 819.5,450.5 Z"/></g>
<g><path style="opacity:1" fill="#f5d79a" d="M 808.5,453.5 C 810.446,454.035 811.446,455.368 811.5,457.5C 810.026,456.564 809.026,455.23 808.5,453.5 Z"/></g>
<g><path style="opacity:1" fill="#ebcd93" d="M 824.5,454.5 C 826.587,455.585 827.92,457.251 828.5,459.5C 826.413,458.415 825.08,456.749 824.5,454.5 Z"/></g>
<g><path style="opacity:0.439" fill="#f9e0ad" d="M 811.5,457.5 C 813.104,458.287 813.771,459.62 813.5,461.5C 812.326,460.486 811.66,459.153 811.5,457.5 Z"/></g>
<g><path style="opacity:0.404" fill="#f1deb5" d="M 830.5,461.5 C 831.906,461.973 832.573,462.973 832.5,464.5C 831.094,464.027 830.427,463.027 830.5,461.5 Z"/></g>
<g><path style="opacity:1" fill="#f9c156" d="M 828.5,459.5 C 829.5,459.833 830.167,460.5 830.5,461.5C 830.427,463.027 831.094,464.027 832.5,464.5C 833.674,465.514 834.34,466.847 834.5,468.5C 830.781,466.75 828.781,463.75 828.5,459.5 Z"/></g>
<g><path style="opacity:0.51" fill="#fcdfaa" d="M 813.5,461.5 C 815.448,463.32 816.448,465.654 816.5,468.5C 814.935,466.491 813.935,464.157 813.5,461.5 Z"/></g>
<g><path style="opacity:0.246" fill="#fbdfac" d="M 816.5,468.5 C 817.222,468.918 817.722,469.584 818,470.5C 818.667,477.5 818.667,484.5 818,491.5C 817.722,492.416 817.222,493.082 816.5,493.5C 817.792,485.171 817.792,476.838 816.5,468.5 Z"/></g>
<g><path style="opacity:0.667" fill="#f6d69d" d="M 836.5,473.5 C 838.04,475.838 838.706,478.505 838.5,481.5C 837.232,479.095 836.565,476.428 836.5,473.5 Z"/></g>
<g><path style="opacity:0.349" fill="#aad0a7" d="M 651.5,487.5 C 650.5,487.5 649.5,487.5 648.5,487.5C 648.795,489.735 648.461,491.735 647.5,493.5C 647.337,491.143 647.503,488.81 648,486.5C 649.756,485.015 650.923,485.348 651.5,487.5 Z"/></g>
<g><path style="opacity:0.737" fill="#f6d79f" d="M 838.5,483.5 C 839.845,491.422 838.845,499.089 835.5,506.5C 837.26,498.939 838.26,491.272 838.5,483.5 Z"/></g>
<g><path style="opacity:0.616" fill="#aacfa7" d="M 651.5,490.5 C 653.04,492.838 653.706,495.505 653.5,498.5C 652.232,496.095 651.565,493.428 651.5,490.5 Z"/></g>
<g><path style="opacity:0.263" fill="#ebd7b2" d="M 816.5,494.5 C 816.448,497.346 815.448,499.68 813.5,501.5C 813.935,498.843 814.935,496.509 816.5,494.5 Z"/></g>
<g><path style="opacity:0.349" fill="#a5cda2" d="M 647.5,493.5 C 647.196,496.522 646.696,499.522 646,502.5C 642.44,504.526 638.607,505.859 634.5,506.5C 637.135,504.672 640.135,503.505 643.5,503C 644.883,499.805 646.216,496.638 647.5,493.5 Z"/></g>
<g><path style="opacity:1" fill="#1c8314" d="M 651.5,487.5 C 651.5,488.5 651.5,489.5 651.5,490.5C 651.565,493.428 652.232,496.095 653.5,498.5C 653.5,498.833 653.5,499.167 653.5,499.5C 653.357,501.262 653.691,502.929 654.5,504.5C 658.105,505.539 661.772,506.205 665.5,506.5C 670.436,510.096 675.103,514.096 679.5,518.5C 679.427,520.027 680.094,521.027 681.5,521.5C 681.415,524.649 682.415,527.316 684.5,529.5C 685.357,538.922 684.023,547.922 680.5,556.5C 680.5,557.167 680.167,557.5 679.5,557.5C 659.424,557.821 639.424,557.487 619.5,556.5C 614.531,547.364 613.364,537.697 616,527.5C 617.845,525.133 619.011,522.467 619.5,519.5C 623.167,516.5 626.5,513.167 629.5,509.5C 631.674,509.25 633.341,508.25 634.5,506.5C 638.607,505.859 642.44,504.526 646,502.5C 646.696,499.522 647.196,496.522 647.5,493.5C 648.461,491.735 648.795,489.735 648.5,487.5C 649.5,487.5 650.5,487.5 651.5,487.5 Z"/></g>
<g><path style="opacity:1" fill="#82ba7c" d="M 653.5,499.5 C 654.249,500.531 654.915,501.698 655.5,503C 659.163,503.572 662.497,504.738 665.5,506.5C 661.772,506.205 658.105,505.539 654.5,504.5C 653.691,502.929 653.357,501.262 653.5,499.5 Z"/></g>
<g><path style="opacity:0.58" fill="#f2d7a4" d="M 813.5,502.5 C 813.573,504.027 812.906,505.027 811.5,505.5C 811.427,503.973 812.094,502.973 813.5,502.5 Z"/></g>
<g><path style="opacity:0.596" fill="#99c895" d="M 634.5,506.5 C 633.341,508.25 631.674,509.25 629.5,509.5C 630.659,507.75 632.326,506.75 634.5,506.5 Z"/></g>
<g><path style="opacity:0.58" fill="#a3cb9f" d="M 665.5,506.5 C 671.715,508.716 676.381,512.716 679.5,518.5C 675.103,514.096 670.436,510.096 665.5,506.5 Z"/></g>
<g><path style="opacity:0.631" fill="#f3d9a3" d="M 811.5,505.5 C 811.155,508.198 809.822,510.198 807.5,511.5C 808.34,509.147 809.674,507.147 811.5,505.5 Z"/></g>
<g><path style="opacity:1" fill="#79b673" d="M 629.5,509.5 C 626.5,513.167 623.167,516.5 619.5,519.5C 621.833,515.167 625.167,511.833 629.5,509.5 Z"/></g>
<g><path style="opacity:0.369" fill="#f7dba3" d="M 835.5,506.5 C 834.502,510.505 832.502,513.839 829.5,516.5C 830.992,512.848 832.992,509.515 835.5,506.5 Z"/></g>
<g><path style="opacity:1" fill="#f9cd7c" d="M 807.5,511.5 C 805.767,515.565 802.767,518.232 798.5,519.5C 801.474,516.862 804.474,514.195 807.5,511.5 Z"/></g>
<g><path style="opacity:0.651" fill="#a1c99f" d="M 679.5,518.5 C 680.906,518.973 681.573,519.973 681.5,521.5C 680.094,521.027 679.427,520.027 679.5,518.5 Z"/></g>
<g><path style="opacity:0.824" fill="#f9da9e" d="M 798.5,519.5 C 798.027,520.906 797.027,521.573 795.5,521.5C 795.973,520.094 796.973,519.427 798.5,519.5 Z"/></g>
<g><path style="opacity:0.282" fill="#fde0ac" d="M 795.5,521.5 C 793.967,523.245 791.967,524.245 789.5,524.5C 791.033,522.755 793.033,521.755 795.5,521.5 Z"/></g>
<g><path style="opacity:0.157" fill="#fae1b1" d="M 824.5,522.5 C 823.738,524.262 822.404,525.262 820.5,525.5C 821.262,523.738 822.596,522.738 824.5,522.5 Z"/></g>
<g><path style="opacity:0.514" fill="#93c48f" d="M 1020.5,522.5 C 1055.13,556.632 1089.63,590.965 1124,625.5C 1124.76,627.066 1124.6,628.399 1123.5,629.5C 1123.65,628.448 1123.48,627.448 1123,626.5C 1088.25,592.25 1054.08,557.583 1020.5,522.5 Z"/></g>
<g><path style="opacity:0.753" fill="#fadba5" d="M 788.5,524.5 C 787.01,526.28 785.01,526.946 782.5,526.5C 784.214,525.262 786.214,524.595 788.5,524.5 Z"/></g>
<g><path style="opacity:1" fill="#81b57b" d="M 681.5,521.5 C 683.585,523.684 684.585,526.351 684.5,529.5C 682.415,527.316 681.415,524.649 681.5,521.5 Z"/></g>
<g><path style="opacity:0.878" fill="#fbd693" d="M 782.5,526.5 C 782.082,527.222 781.416,527.722 780.5,528C 776.833,528.333 773.167,528.667 769.5,529C 770.056,529.383 770.389,529.883 770.5,530.5C 767.139,529.797 766.806,528.463 769.5,526.5C 773.797,527.463 778.13,527.463 782.5,526.5 Z"/></g>
<g><path style="opacity:1" fill="#fdd58f" d="M 770.5,530.5 C 774.915,530.861 778.915,532.194 782.5,534.5C 778.085,534.139 774.085,532.806 770.5,530.5 Z"/></g>
<g><path style="opacity:0.333" fill="#e8d9a3" d="M 809.5,531.5 C 809.737,532.791 809.404,533.791 808.5,534.5C 807.791,533.596 806.791,533.263 805.5,533.5C 806.287,531.896 807.62,531.229 809.5,531.5 Z"/></g>
<g><path style="opacity:1" fill="#188211" d="M 818.5,527.5 C 818.5,528.167 818.5,528.833 818.5,529.5C 818.781,533.188 819.281,536.855 820,540.5C 820.383,541.056 820.883,541.389 821.5,541.5C 820.942,548.058 822.275,554.058 825.5,559.5C 825.171,562.228 825.837,564.562 827.5,566.5C 828.369,568.717 828.702,571.05 828.5,573.5C 829.23,575.045 830.563,575.878 832.5,576C 836.44,577.015 840.44,577.515 844.5,577.5C 848.92,580.511 853.92,582.177 859.5,582.5C 860.78,583.931 862.447,584.598 864.5,584.5C 867.008,586.924 870.008,588.59 873.5,589.5C 874.659,591.25 876.326,592.25 878.5,592.5C 878.973,593.906 879.973,594.573 881.5,594.5C 881.973,595.906 882.973,596.573 884.5,596.5C 886.23,597.026 887.564,598.026 888.5,599.5C 889.865,601.86 891.865,603.527 894.5,604.5C 896.766,608.436 899.766,611.769 903.5,614.5C 904.08,616.749 905.413,618.415 907.5,619.5C 908.08,621.749 909.413,623.415 911.5,624.5C 911.427,626.027 912.094,627.027 913.5,627.5C 914.338,627.842 914.672,628.508 914.5,629.5C 914.427,631.027 915.094,632.027 916.5,632.5C 917.338,632.842 917.672,633.508 917.5,634.5C 917.229,636.38 917.896,637.713 919.5,638.5C 920.674,639.514 921.34,640.847 921.5,642.5C 922.589,647.767 924.256,652.767 926.5,657.5C 926.565,660.428 927.232,663.095 928.5,665.5C 930.588,683.722 929.588,701.722 925.5,719.5C 922.704,724.105 920.704,729.105 919.5,734.5C 919.5,735.167 919.167,735.5 918.5,735.5C 916.654,737.03 915.654,739.03 915.5,741.5C 915.672,742.492 915.338,743.158 914.5,743.5C 913.094,743.973 912.427,744.973 912.5,746.5C 912.068,747.71 911.401,748.71 910.5,749.5C 882.833,749.5 855.167,749.5 827.5,749.5C 799.309,711.791 774.142,672.125 752,630.5C 747.867,620.598 744.033,610.598 740.5,600.5C 743.167,598.167 745.833,595.833 748.5,593.5C 751.198,593.155 753.198,591.822 754.5,589.5C 758.019,589.741 760.685,588.407 762.5,585.5C 766.353,585.89 769.353,584.556 771.5,581.5C 775.767,580.744 779.767,579.411 783.5,577.5C 783.833,577.5 784.167,577.5 784.5,577.5C 789.19,576.862 793.856,576.029 798.5,575C 799.056,574.617 799.389,574.117 799.5,573.5C 800.768,571.095 801.435,568.428 801.5,565.5C 801.5,565.167 801.5,564.833 801.5,564.5C 802.924,562.485 803.59,560.152 803.5,557.5C 803.205,555.265 803.539,553.265 804.5,551.5C 806.163,549.562 806.829,547.228 806.5,544.5C 806.5,544.167 806.5,543.833 806.5,543.5C 808.223,541.22 808.889,538.553 808.5,535.5C 808.5,535.167 808.5,534.833 808.5,534.5C 809.404,533.791 809.737,532.791 809.5,531.5C 812.34,529.777 815.34,528.443 818.5,527.5 Z"/></g>
<g><path style="opacity:0.872" fill="#fddea6" d="M 805.5,533.5 C 797.872,536.418 790.205,536.751 782.5,534.5C 790.196,534.646 797.862,534.313 805.5,533.5 Z"/></g>
<g><path style="opacity:0.682" fill="#9ac796" d="M 619.5,519.5 C 619.011,522.467 617.845,525.133 616,527.5C 613.364,537.697 614.531,547.364 619.5,556.5C 617.526,554.572 616.026,552.239 615,549.5C 614.323,545.593 613.49,541.759 612.5,538C 613.49,534.241 614.323,530.407 615,526.5C 616.026,523.761 617.526,521.428 619.5,519.5 Z"/></g>
<g><path style="opacity:1" fill="#8ebe8a" d="M 818.5,529.5 C 820.102,533.239 821.102,537.239 821.5,541.5C 820.883,541.389 820.383,541.056 820,540.5C 819.281,536.855 818.781,533.188 818.5,529.5 Z"/></g>
<g><path style="opacity:1" fill="#92c38e" d="M 684.5,529.5 C 687.934,539.138 686.601,548.138 680.5,556.5C 684.023,547.922 685.357,538.922 684.5,529.5 Z"/></g>
<g><path style="opacity:0.808" fill="#9bc797" d="M 808.5,535.5 C 808.889,538.553 808.223,541.22 806.5,543.5C 806.565,540.572 807.232,537.905 808.5,535.5 Z"/></g>
<g><path style="opacity:0.408" fill="#e9d89f" d="M 510.5,522.5 C 510.833,522.5 511.167,522.5 511.5,522.5C 477.5,557.167 443.167,591.5 408.5,625.5C 408.167,625.5 407.833,625.5 407.5,625.5C 441.5,590.833 475.833,556.5 510.5,522.5 Z"/></g>
<g><path style="opacity:0.596" fill="#a5cfa2" d="M 806.5,544.5 C 806.829,547.228 806.163,549.562 804.5,551.5C 804.41,548.848 805.076,546.515 806.5,544.5 Z"/></g>
<g><path style="opacity:1" fill="#87bd81" d="M 976.5,551.5 C 978.5,551.5 979.5,552.5 979.5,554.5C 978.167,553.833 977.167,552.833 976.5,551.5 Z"/></g>
<g><path style="opacity:1" fill="#76b370" d="M 821.5,541.5 C 823.435,547.252 824.769,553.252 825.5,559.5C 822.275,554.058 820.942,548.058 821.5,541.5 Z"/></g>
<g><path style="opacity:1" fill="#86bc81" d="M 979.5,554.5 C 981.5,554.5 982.5,555.5 982.5,557.5C 981.167,556.833 980.167,555.833 979.5,554.5 Z"/></g>
<g><path style="opacity:1" fill="#aed3ac" d="M 619.5,556.5 C 639.424,557.487 659.424,557.821 679.5,557.5C 681.5,558.167 683.5,558.833 685.5,559.5C 662.167,559.5 638.833,559.5 615.5,559.5C 617.219,558.978 618.552,557.978 619.5,556.5 Z"/></g>
<g><path style="opacity:1" fill="#52a14d" d="M 615.5,559.5 C 638.833,559.5 662.167,559.5 685.5,559.5C 685.5,561.167 685.5,562.833 685.5,564.5C 684.566,563.432 684.232,562.099 684.5,560.5C 661.833,560.5 639.167,560.5 616.5,560.5C 616.768,562.099 616.434,563.432 615.5,564.5C 615.5,562.833 615.5,561.167 615.5,559.5 Z"/></g>
<g><path style="opacity:1" fill="#8abe84" d="M 984.5,559.5 C 986.5,559.5 987.5,560.5 987.5,562.5C 986.167,561.833 985.167,560.833 984.5,559.5 Z"/></g>
<g><path style="opacity:0.455" fill="#abd2a8" d="M 803.5,557.5 C 803.59,560.152 802.924,562.485 801.5,564.5C 801.171,561.772 801.837,559.438 803.5,557.5 Z"/></g>
<g><path style="opacity:1" fill="#87bd81" d="M 989.5,564.5 C 992.167,565.167 993.833,566.833 994.5,569.5C 992.5,568.167 990.833,566.5 989.5,564.5 Z"/></g>
<g><path style="opacity:0.455" fill="#afd4ad" d="M 825.5,559.5 C 827.163,561.438 827.829,563.772 827.5,566.5C 825.837,564.562 825.171,562.228 825.5,559.5 Z"/></g>
<g><path style="opacity:0.409" fill="#aed3ab" d="M 615.5,559.5 C 615.5,561.167 615.5,562.833 615.5,564.5C 615.5,565.167 615.167,565.5 614.5,565.5C 612.833,565.5 611.167,565.5 609.5,565.5C 609.5,568.833 609.5,572.167 609.5,575.5C 608.518,572.038 608.185,568.371 608.5,564.5C 610.5,564.5 612.5,564.5 614.5,564.5C 614.216,562.585 614.549,560.919 615.5,559.5 Z"/></g>
<g><path style="opacity:0.126" fill="#c4dec1" d="M 685.5,559.5 C 686.451,560.919 686.784,562.585 686.5,564.5C 688.467,564.261 690.301,564.594 692,565.5C 692.808,569.027 692.641,572.36 691.5,575.5C 691.81,572.287 691.477,569.287 690.5,566.5C 688.833,565.833 687.167,565.167 685.5,564.5C 685.5,562.833 685.5,561.167 685.5,559.5 Z"/></g>
<g><path style="opacity:1" fill="#87bd81" d="M 994.5,569.5 C 997.167,570.167 998.833,571.833 999.5,574.5C 997.5,573.167 995.833,571.5 994.5,569.5 Z"/></g>
<g><path style="opacity:0.384" fill="#aed3ab" d="M 801.5,565.5 C 801.435,568.428 800.768,571.095 799.5,573.5C 799.294,570.505 799.96,567.838 801.5,565.5 Z"/></g>
<g><path style="opacity:1" fill="#5ba556" d="M 614.5,565.5 C 613.432,566.434 612.099,566.768 610.5,566.5C 610.5,569.167 610.5,571.833 610.5,574.5C 613.713,574.19 616.713,574.523 619.5,575.5C 616.167,575.5 612.833,575.5 609.5,575.5C 609.5,572.167 609.5,568.833 609.5,565.5C 611.167,565.5 612.833,565.5 614.5,565.5 Z"/></g>
<g><path style="opacity:1" fill="#66ac62" d="M 690.5,566.5 C 691.477,569.287 691.81,572.287 691.5,575.5C 688.5,575.5 685.5,575.5 682.5,575.5C 684.948,574.527 687.615,574.194 690.5,574.5C 690.5,571.833 690.5,569.167 690.5,566.5 Z"/></g>
<g><path style="opacity:0.965" fill="#a1cb9e" d="M 799.5,573.5 C 799.389,574.117 799.056,574.617 798.5,575C 793.856,576.029 789.19,576.862 784.5,577.5C 789.232,575.644 794.232,574.31 799.5,573.5 Z"/></g>
<g><path style="opacity:1" fill="#96c592" d="M 828.5,573.5 C 834.054,574.416 839.387,575.75 844.5,577.5C 840.44,577.515 836.44,577.015 832.5,576C 830.563,575.878 829.23,575.045 828.5,573.5 Z"/></g>
<g><path style="opacity:1" fill="#76b36f" d="M 999.5,574.5 C 1002.5,574.833 1004.17,576.5 1004.5,579.5C 1002.5,578.167 1000.83,576.5 999.5,574.5 Z"/></g>
<g><path style="opacity:1" fill="#91c98b" d="M 609.5,575.5 C 612.833,575.5 616.167,575.5 619.5,575.5C 619.833,575.5 620.167,575.5 620.5,575.5C 620.5,593.167 620.5,610.833 620.5,628.5C 618.167,629.167 615.833,629.833 613.5,630.5C 615.474,629.094 617.474,627.594 619.5,626C 618.172,609.863 618.172,593.696 619.5,577.5C 616.023,576.833 612.689,576.166 609.5,575.5 Z"/></g>
<g><path style="opacity:1" fill="#259c1c" d="M 620.5,575.5 C 629.833,575.5 639.167,575.5 648.5,575.5C 648.667,592.837 648.5,610.17 648,627.5C 638.917,628.485 629.751,628.818 620.5,628.5C 620.5,610.833 620.5,593.167 620.5,575.5 Z"/></g>
<g><path style="opacity:0.247" fill="#c0ddbe" d="M 682.5,575.5 C 685.5,575.5 688.5,575.5 691.5,575.5C 689.052,576.473 686.385,576.806 683.5,576.5C 683.333,593.503 683.5,610.503 684,627.5C 685.302,628.085 686.469,628.751 687.5,629.5C 685.856,629.714 684.356,629.38 683,628.5C 682.5,610.836 682.333,593.17 682.5,575.5 Z"/></g>
<g><path style="opacity:0.773" fill="#9eca9b" d="M 783.5,577.5 C 779.767,579.411 775.767,580.744 771.5,581.5C 775.085,579.194 779.085,577.861 783.5,577.5 Z"/></g>
<g><path style="opacity:1" fill="#89be83" d="M 1004.5,579.5 C 1006.5,579.5 1007.5,580.5 1007.5,582.5C 1006.17,581.833 1005.17,580.833 1004.5,579.5 Z"/></g>
<g><path style="opacity:0.455" fill="#a3cc9f" d="M 844.5,577.5 C 849.915,578.194 854.915,579.86 859.5,582.5C 853.92,582.177 848.92,580.511 844.5,577.5 Z"/></g>
<g><path style="opacity:0.455" fill="#b1d4ae" d="M 859.5,582.5 C 861.553,582.402 863.22,583.069 864.5,584.5C 862.447,584.598 860.78,583.931 859.5,582.5 Z"/></g>
<g><path style="opacity:1" fill="#69ab60" d="M 771.5,581.5 C 769.353,584.556 766.353,585.89 762.5,585.5C 765.057,583.393 768.057,582.059 771.5,581.5 Z"/></g>
<g><path style="opacity:1" fill="#88be83" d="M 1009.5,584.5 C 1011.5,584.5 1012.5,585.5 1012.5,587.5C 1011.17,586.833 1010.17,585.833 1009.5,584.5 Z"/></g>
<g><path style="opacity:0.561" fill="#a5cca2" d="M 864.5,584.5 C 867.992,585.41 870.992,587.076 873.5,589.5C 870.008,588.59 867.008,586.924 864.5,584.5 Z"/></g>
<g><path style="opacity:1" fill="#7bb574" d="M 762.5,585.5 C 760.685,588.407 758.019,589.741 754.5,589.5C 756.891,587.638 759.558,586.304 762.5,585.5 Z"/></g>
<g><path style="opacity:1" fill="#77b370" d="M 1012.5,587.5 C 1015.5,587.833 1017.17,589.5 1017.5,592.5C 1015.5,591.167 1013.83,589.5 1012.5,587.5 Z"/></g>
<g><path style="opacity:0.914" fill="#95c491" d="M 754.5,589.5 C 753.198,591.822 751.198,593.155 748.5,593.5C 750.147,591.674 752.147,590.34 754.5,589.5 Z"/></g>
<g><path style="opacity:0.631" fill="#a4cca1" d="M 873.5,589.5 C 875.674,589.75 877.341,590.75 878.5,592.5C 876.326,592.25 874.659,591.25 873.5,589.5 Z"/></g>
<g><path style="opacity:1" fill="#88bd83" d="M 1017.5,592.5 C 1019.5,592.5 1020.5,593.5 1020.5,595.5C 1019.17,594.833 1018.17,593.833 1017.5,592.5 Z"/></g>
<g><path style="opacity:0.404" fill="#aad1a6" d="M 878.5,592.5 C 880.027,592.427 881.027,593.094 881.5,594.5C 879.973,594.573 878.973,593.906 878.5,592.5 Z"/></g>
<g><path style="opacity:0.333" fill="#b0d3ac" d="M 881.5,594.5 C 883.027,594.427 884.027,595.094 884.5,596.5C 882.973,596.573 881.973,595.906 881.5,594.5 Z"/></g>
<g><path style="opacity:0.808" fill="#90c38c" d="M 748.5,593.5 C 745.833,595.833 743.167,598.167 740.5,600.5C 738.754,602.252 736.754,603.585 734.5,604.5C 738.432,599.871 743.099,596.204 748.5,593.5 Z"/></g>
<g><path style="opacity:1" fill="#88bd83" d="M 1022.5,597.5 C 1025.17,598.167 1026.83,599.833 1027.5,602.5C 1025.5,601.167 1023.83,599.5 1022.5,597.5 Z"/></g>
<g><path style="opacity:0.071" fill="#e9d9a0" d="M 562.5,424.5 C 562.5,464.167 562.5,503.833 562.5,543.5C 562.631,544.239 562.464,544.906 562,545.5C 534.25,573.083 506.75,600.749 479.5,628.5C 478.224,627.614 478.224,626.614 479.5,625.5C 506.82,598.68 533.986,571.68 561,544.5C 561.167,504.331 561.667,464.331 562.5,424.5 Z"/></g>
<g><path style="opacity:0.651" fill="#a9cfa5" d="M 888.5,599.5 C 891.109,600.443 893.109,602.11 894.5,604.5C 891.865,603.527 889.865,601.86 888.5,599.5 Z"/></g>
<g><path style="opacity:1" fill="#79b572" d="M 1027.5,602.5 C 1030.94,603.693 1033.27,606.026 1034.5,609.5C 1031.83,607.5 1029.5,605.167 1027.5,602.5 Z"/></g>
<g><path style="opacity:1" fill="#259c1c" d="M 740.5,600.5 C 744.033,610.598 747.867,620.598 752,630.5C 774.142,672.125 799.309,711.791 827.5,749.5C 791.498,749.667 755.498,749.5 719.5,749C 718.616,747.28 717.283,746.114 715.5,745.5C 714.026,744.564 713.026,743.23 712.5,741.5C 712.402,737.304 710.736,733.971 707.5,731.5C 707.88,729.302 707.213,727.635 705.5,726.5C 705.31,723.145 704.31,720.145 702.5,717.5C 699.429,703.716 698.095,689.716 698.5,675.5C 698.5,675.167 698.5,674.833 698.5,674.5C 699.525,671.026 700.192,667.36 700.5,663.5C 701.768,661.095 702.435,658.428 702.5,655.5C 704.163,653.562 704.829,651.228 704.5,648.5C 706.834,646.824 707.834,644.491 707.5,641.5C 709.245,639.967 710.245,637.967 710.5,635.5C 712.104,634.713 712.771,633.38 712.5,631.5C 714.326,629.853 715.66,627.853 716.5,625.5C 717.906,625.027 718.573,624.027 718.5,622.5C 722.203,618.798 725.537,614.798 728.5,610.5C 730.816,609.578 732.483,607.911 733.5,605.5C 733.5,604.833 733.833,604.5 734.5,604.5C 736.754,603.585 738.754,602.252 740.5,600.5 Z"/></g>
<g><path style="opacity:0.965" fill="#9fcb9b" d="M 894.5,604.5 C 898.234,607.231 901.234,610.564 903.5,614.5C 899.766,611.769 896.766,608.436 894.5,604.5 Z"/></g>
<g><path style="opacity:1" fill="#7dc175" d="M 733.5,605.5 C 732.483,607.911 730.816,609.578 728.5,610.5C 729.517,608.089 731.184,606.422 733.5,605.5 Z"/></g>
<g><path style="opacity:1" fill="#86bc80" d="M 1034.5,609.5 C 1036.5,609.5 1037.5,610.5 1037.5,612.5C 1036.17,611.833 1035.17,610.833 1034.5,609.5 Z"/></g>
<g><path style="opacity:1" fill="#89be83" d="M 1037.5,612.5 C 1040.17,613.167 1041.83,614.833 1042.5,617.5C 1040.5,616.167 1038.83,614.5 1037.5,612.5 Z"/></g>
<g><path style="opacity:1" fill="#87be82" d="M 903.5,614.5 C 905.587,615.585 906.92,617.251 907.5,619.5C 905.413,618.415 904.08,616.749 903.5,614.5 Z"/></g>
<g><path style="opacity:1" fill="#88bd82" d="M 1042.5,617.5 C 1046.17,619.167 1048.83,621.833 1050.5,625.5C 1047.5,623.167 1044.83,620.5 1042.5,617.5 Z"/></g>
<g><path style="opacity:0.929" fill="#8dc988" d="M 728.5,610.5 C 725.537,614.798 722.203,618.798 718.5,622.5C 720.709,617.619 724.043,613.619 728.5,610.5 Z"/></g>
<g><path style="opacity:0.561" fill="#9ecb9b" d="M 907.5,619.5 C 909.587,620.585 910.92,622.251 911.5,624.5C 909.413,623.415 908.08,621.749 907.5,619.5 Z"/></g>
<g><path style="opacity:0.667" fill="#9ccf98" d="M 718.5,622.5 C 718.573,624.027 717.906,625.027 716.5,625.5C 716.427,623.973 717.094,622.973 718.5,622.5 Z"/></g>
<g><path style="opacity:0.463" fill="#edd698" d="M 407.5,625.5 C 407.833,625.5 408.167,625.5 408.5,625.5C 407.697,626.423 407.53,627.423 408,628.5C 442.701,663.035 477.201,697.701 511.5,732.5C 511.5,782.167 511.5,831.833 511.5,881.5C 510.667,832.002 510.167,782.335 510,732.5C 475.667,698.167 441.333,663.833 407,629.5C 406.235,627.934 406.402,626.601 407.5,625.5 Z"/></g>
<g><path style="opacity:0.51" fill="#b2d2b0" d="M 911.5,624.5 C 912.906,624.973 913.573,625.973 913.5,627.5C 912.094,627.027 911.427,626.027 911.5,624.5 Z"/></g>
<g><path style="opacity:1" fill="#e6cc7f" d="M 479.5,628.5 C 486.833,635.167 493.833,642.167 500.5,649.5C 493.256,643.762 486.423,637.428 480,630.5C 479.536,629.906 479.369,629.239 479.5,628.5 Z"/></g>
<g><path style="opacity:0.086" fill="#b1d2af" d="M 687.5,629.5 C 689.833,629.833 691.167,631.167 691.5,633.5C 689.833,632.5 688.5,631.167 687.5,629.5 Z"/></g>
<g><path style="opacity:0.616" fill="#aad6a7" d="M 716.5,625.5 C 715.66,627.853 714.326,629.853 712.5,631.5C 712.845,628.802 714.178,626.802 716.5,625.5 Z"/></g>
<g><path style="opacity:0.859" fill="#a2be9f" d="M 914.5,629.5 C 915.906,629.973 916.573,630.973 916.5,632.5C 915.094,632.027 914.427,631.027 914.5,629.5 Z"/></g>
<g><path style="opacity:0.859" fill="#95c98f" d="M 712.5,631.5 C 712.771,633.38 712.104,634.713 710.5,635.5C 710.66,633.847 711.326,632.514 712.5,631.5 Z"/></g>
<g><path style="opacity:0.58" fill="#a3cea0" d="M 917.5,634.5 C 918.674,635.514 919.34,636.847 919.5,638.5C 917.896,637.713 917.229,636.38 917.5,634.5 Z"/></g>
<g><path style="opacity:0.32" fill="#b8d8b5" d="M 692.5,635.5 C 693.657,644.324 693.824,653.324 693,662.5C 692.148,663.571 691.315,664.571 690.5,665.5C 690.312,663.897 690.812,662.563 692,661.5C 692.5,652.84 692.666,644.173 692.5,635.5 Z"/></g>
<g><path style="opacity:1" fill="#85bc7f" d="M 611.5,632.5 C 610.19,643.487 610.19,654.487 611.5,665.5C 610.207,664.158 609.374,662.491 609,660.5C 608.333,652.5 608.333,644.5 609,636.5C 609.2,634.68 610.034,633.347 611.5,632.5 Z"/></g>
<g><path style="opacity:0.718" fill="#a3d4a0" d="M 710.5,635.5 C 710.245,637.967 709.245,639.967 707.5,641.5C 707.755,639.033 708.755,637.033 710.5,635.5 Z"/></g>
<g><path style="opacity:1" fill="#8cc886" d="M 707.5,641.5 C 707.834,644.491 706.834,646.824 704.5,648.5C 704.935,645.843 705.935,643.509 707.5,641.5 Z"/></g>
<g><path style="opacity:1" fill="#99c695" d="M 921.5,642.5 C 924.146,647.105 925.813,652.105 926.5,657.5C 924.256,652.767 922.589,647.767 921.5,642.5 Z"/></g>
<g><path style="opacity:0.949" fill="#97c693" d="M 1050.5,625.5 C 1052.34,626.204 1052.84,627.537 1052,629.5C 1024.3,657.035 996.798,684.701 969.5,712.5C 969.167,712.5 968.833,712.5 968.5,712.5C 995.414,684.084 1022.91,656.084 1051,628.5C 1051.47,627.423 1051.3,626.423 1050.5,625.5 Z"/></g>
<g><path style="opacity:1" fill="#e5cb7d" d="M 500.5,649.5 C 515.167,663.5 529.5,677.833 543.5,692.5C 542.761,692.631 542.094,692.464 541.5,692C 527.245,678.248 513.578,664.081 500.5,649.5 Z"/></g>
<g><path style="opacity:1" fill="#90c38a" d="M 704.5,648.5 C 704.829,651.228 704.163,653.562 702.5,655.5C 702.41,652.848 703.076,650.515 704.5,648.5 Z"/></g>
<g><path style="opacity:0.596" fill="#9fd09b" d="M 702.5,655.5 C 702.435,658.428 701.768,661.095 700.5,663.5C 700.111,660.447 700.777,657.78 702.5,655.5 Z"/></g>
<g><path style="opacity:0.42" fill="#a7cca5" d="M 926.5,657.5 C 928.223,659.78 928.889,662.447 928.5,665.5C 927.232,663.095 926.565,660.428 926.5,657.5 Z"/></g>
<g><path style="opacity:1" fill="#198212" d="M 685.5,564.5 C 687.167,565.167 688.833,565.833 690.5,566.5C 690.5,569.167 690.5,571.833 690.5,574.5C 687.615,574.194 684.948,574.527 682.5,575.5C 682.333,593.17 682.5,610.836 683,628.5C 684.356,629.38 685.856,629.714 687.5,629.5C 688.5,631.167 689.833,632.5 691.5,633.5C 692.338,633.842 692.672,634.508 692.5,635.5C 692.666,644.173 692.5,652.84 692,661.5C 690.812,662.563 690.312,663.897 690.5,665.5C 690.167,666.5 689.5,667.167 688.5,667.5C 686.302,667.875 684.302,668.542 682.5,669.5C 681.501,708.663 681.168,747.996 681.5,787.5C 670.5,787.5 659.5,787.5 648.5,787.5C 648.5,747.833 648.5,708.167 648.5,668.5C 638.833,668.5 629.167,668.5 619.5,668.5C 616.447,668.428 613.781,667.428 611.5,665.5C 610.19,654.487 610.19,643.487 611.5,632.5C 611.5,631.167 612.167,630.5 613.5,630.5C 615.833,629.833 618.167,629.167 620.5,628.5C 629.751,628.818 638.917,628.485 648,627.5C 648.5,610.17 648.667,592.837 648.5,575.5C 639.167,575.5 629.833,575.5 620.5,575.5C 620.167,575.5 619.833,575.5 619.5,575.5C 616.713,574.523 613.713,574.19 610.5,574.5C 610.5,571.833 610.5,569.167 610.5,566.5C 612.099,566.768 613.432,566.434 614.5,565.5C 615.167,565.5 615.5,565.167 615.5,564.5C 616.434,563.432 616.768,562.099 616.5,560.5C 639.167,560.5 661.833,560.5 684.5,560.5C 684.232,562.099 684.566,563.432 685.5,564.5 Z"/></g>
<g><path style="opacity:1" fill="#d2a313" d="M 668.5,635.5 C 667.551,645.114 667.218,654.781 667.5,664.5C 667.167,664.5 666.833,664.5 666.5,664.5C 666.334,655.161 666.5,645.827 667,636.5C 667.383,635.944 667.883,635.611 668.5,635.5 Z"/></g>
<g><path style="opacity:1" fill="#939913" d="M 644.5,636.5 C 644.5,645.833 644.5,655.167 644.5,664.5C 649.5,664.5 654.5,664.5 659.5,664.5C 659.5,655.5 659.5,646.5 659.5,637.5C 660.494,646.652 660.827,655.985 660.5,665.5C 654.833,665.5 649.167,665.5 643.5,665.5C 643.173,655.652 643.506,645.986 644.5,636.5 Z"/></g>
<g><path style="opacity:1" fill="#a69b13" d="M 622.5,634.5 C 622.539,635.756 622.039,636.756 621,637.5C 620.5,646.494 620.334,655.494 620.5,664.5C 625.5,664.5 630.5,664.5 635.5,664.5C 630.36,665.488 625.026,665.821 619.5,665.5C 619.334,655.828 619.5,646.161 620,636.5C 620.708,635.619 621.542,634.953 622.5,634.5 Z"/></g>
<g><path style="opacity:1" fill="#b09d13" d="M 679.5,634.5 C 680.458,634.953 681.292,635.619 682,636.5C 682.5,646.161 682.666,655.828 682.5,665.5C 676.974,665.821 671.64,665.488 666.5,664.5C 666.833,664.5 667.167,664.5 667.5,664.5C 672.167,664.5 676.833,664.5 681.5,664.5C 681.666,655.494 681.5,646.494 681,637.5C 679.961,636.756 679.461,635.756 679.5,634.5 Z"/></g>
<g><path style="opacity:1" fill="#faab15" d="M 679.5,634.5 C 679.461,635.756 679.961,636.756 681,637.5C 681.5,646.494 681.666,655.494 681.5,664.5C 676.833,664.5 672.167,664.5 667.5,664.5C 667.218,654.781 667.551,645.114 668.5,635.5C 671.77,631.893 675.437,631.56 679.5,634.5 Z"/></g>
<g><path style="opacity:1" fill="#f8ab15" d="M 659.5,637.5 C 659.5,646.5 659.5,655.5 659.5,664.5C 654.5,664.5 649.5,664.5 644.5,664.5C 644.5,655.167 644.5,645.833 644.5,636.5C 646.794,632.748 650.128,631.581 654.5,633C 656.618,634.049 658.284,635.549 659.5,637.5 Z"/></g>
<g><path style="opacity:1" fill="#f8ab15" d="M 635.5,664.5 C 630.5,664.5 625.5,664.5 620.5,664.5C 620.334,655.494 620.5,646.494 621,637.5C 622.039,636.756 622.539,635.756 622.5,634.5C 627.102,631.516 631.268,632.182 635,636.5C 635.5,645.827 635.666,655.161 635.5,664.5 Z"/></g>
<g><path style="opacity:0.349" fill="#aad1a6" d="M 611.5,665.5 C 613.781,667.428 616.447,668.428 619.5,668.5C 619.5,668.833 619.5,669.167 619.5,669.5C 619.5,669.833 619.5,670.167 619.5,670.5C 615.9,670.274 613.234,668.608 611.5,665.5 Z"/></g>
<g><path style="opacity:0.404" fill="#aed6ab" d="M 700.5,663.5 C 700.192,667.36 699.525,671.026 698.5,674.5C 698.116,670.511 698.783,666.845 700.5,663.5 Z"/></g>
<g><path style="opacity:1" fill="#259b1c" d="M 619.5,669.5 C 619.5,669.167 619.5,668.833 619.5,668.5C 629.167,668.5 638.833,668.5 648.5,668.5C 648.5,708.167 648.5,747.833 648.5,787.5C 639.167,787.5 629.833,787.5 620.5,787.5C 620.832,747.996 620.499,708.663 619.5,669.5 Z"/></g>
<g><path style="opacity:0.247" fill="#c5dfc3" d="M 688.5,667.5 C 687.365,669.213 685.698,669.88 683.5,669.5C 683.832,709.337 683.499,749.004 682.5,788.5C 682.5,748.833 682.5,709.167 682.5,669.5C 684.302,668.542 686.302,667.875 688.5,667.5 Z"/></g>
<g><path style="opacity:1" fill="#a5cea2" d="M 928.5,665.5 C 932.592,683.746 931.592,701.746 925.5,719.5C 929.588,701.722 930.588,683.722 928.5,665.5 Z"/></g>
<g><path style="opacity:0.58" fill="#abd7a7" d="M 698.5,675.5 C 698.095,689.716 699.429,703.716 702.5,717.5C 699.912,711.2 698.412,704.533 698,697.5C 697.178,689.988 697.345,682.655 698.5,675.5 Z"/></g>
<g><path style="opacity:1" fill="#e5cb7e" d="M 543.5,692.5 C 548.167,696.5 552.5,700.833 556.5,705.5C 551.167,702.167 546.833,697.833 543.5,692.5 Z"/></g>
<g><path style="opacity:1" fill="#e2c467" d="M 556.5,705.5 C 558.833,707.167 560.833,709.167 562.5,711.5C 562.5,751.167 562.5,790.833 562.5,830.5C 561.667,791.002 561.167,751.335 561,711.5C 558.873,709.886 557.373,707.886 556.5,705.5 Z"/></g>
<g><path style="opacity:1" fill="#a2cc9c" d="M 968.5,712.5 C 968.833,712.5 969.167,712.5 969.5,712.5C 969.667,751.835 969.5,791.168 969,830.5C 940.24,831.495 911.407,831.829 882.5,831.5C 872.013,830.506 861.346,830.172 850.5,830.5C 889.669,829.833 929.002,829.167 968.5,828.5C 967.17,789.706 967.17,751.039 968.5,712.5 Z"/></g>
<g><path style="opacity:0.651" fill="#aad6a6" d="M 702.5,717.5 C 704.31,720.145 705.31,723.145 705.5,726.5C 703.528,723.916 702.528,720.916 702.5,717.5 Z"/></g>
<g><path style="opacity:0.192" fill="#a5cda2" d="M 925.5,719.5 C 924.296,724.895 922.296,729.895 919.5,734.5C 920.704,729.105 922.704,724.105 925.5,719.5 Z"/></g>
<g><path style="opacity:0.753" fill="#a0d19b" d="M 705.5,726.5 C 707.213,727.635 707.88,729.302 707.5,731.5C 706.069,730.22 705.402,728.553 705.5,726.5 Z"/></g>
<g><path style="opacity:1" fill="#8fc987" d="M 707.5,731.5 C 710.736,733.971 712.402,737.304 712.5,741.5C 710.326,738.485 708.659,735.151 707.5,731.5 Z"/></g>
<g><path style="opacity:1" fill="#52a14d" d="M 1019.5,733.5 C 1019.5,782.833 1019.5,832.167 1019.5,881.5C 984.5,881.5 949.5,881.5 914.5,881.5C 914.5,881.167 914.5,880.833 914.5,880.5C 949.167,880.5 983.833,880.5 1018.5,880.5C 1018.17,831.33 1018.5,782.33 1019.5,733.5 Z"/></g>
<g><path style="opacity:0.263" fill="#a5cea3" d="M 1020.5,732.5 C 1020.5,782.5 1020.5,832.5 1020.5,882.5C 985.167,882.5 949.833,882.5 914.5,882.5C 914.5,882.167 914.5,881.833 914.5,881.5C 949.5,881.5 984.5,881.5 1019.5,881.5C 1019.5,832.167 1019.5,782.833 1019.5,733.5C 1019.5,732.833 1019.83,732.5 1020.5,732.5 Z"/></g>
<g><path style="opacity:0.318" fill="#9cc599" d="M 918.5,735.5 C 918.346,737.97 917.346,739.97 915.5,741.5C 915.654,739.03 916.654,737.03 918.5,735.5 Z"/></g>
<g><path style="opacity:0.349" fill="#b0d0af" d="M 914.5,743.5 C 914.573,745.027 913.906,746.027 912.5,746.5C 912.427,744.973 913.094,743.973 914.5,743.5 Z"/></g>
<g><path style="opacity:1" fill="#7ec07e" d="M 715.5,745.5 C 717.283,746.114 718.616,747.28 719.5,749C 755.498,749.5 791.498,749.667 827.5,749.5C 855.167,749.5 882.833,749.5 910.5,749.5C 910.389,750.117 910.056,750.617 909.5,751C 845.833,751.667 782.167,751.667 718.5,751C 716.84,749.512 715.84,747.679 715.5,745.5 Z"/></g>
<g><path style="opacity:0.439" fill="#fee2ad" d="M 703.5,755.5 C 740.999,754.833 778.665,754.5 816.5,754.5C 854.506,754.5 892.173,755.167 929.5,756.5C 929.167,756.5 928.833,756.5 928.5,756.5C 853.669,755.501 778.669,755.167 703.5,755.5 Z"/></g>
<g><path style="opacity:1" fill="#fcbd4a" d="M 703.5,755.5 C 778.669,755.167 853.669,755.501 928.5,756.5C 853.833,756.5 779.167,756.5 704.5,756.5C 704.5,763.167 704.5,769.833 704.5,776.5C 703.509,769.687 703.175,762.687 703.5,755.5 Z"/></g>
<g><path style="opacity:1" fill="#faaa16" d="M 928.5,756.5 C 928.5,763.167 928.5,769.833 928.5,776.5C 853.833,776.5 779.167,776.5 704.5,776.5C 704.5,769.833 704.5,763.167 704.5,756.5C 779.167,756.5 853.833,756.5 928.5,756.5 Z"/></g>
<g><path style="opacity:1" fill="#fccc73" d="M 928.5,756.5 C 928.833,756.5 929.167,756.5 929.5,756.5C 930.81,763.401 930.81,770.401 929.5,777.5C 854.331,777.833 779.331,777.499 704.5,776.5C 779.167,776.5 853.833,776.5 928.5,776.5C 928.5,769.833 928.5,763.167 928.5,756.5 Z"/></g>
<g><path style="opacity:0.282" fill="#fde7bc" d="M 703.5,755.5 C 703.175,762.687 703.509,769.687 704.5,776.5C 779.331,777.499 854.331,777.833 929.5,777.5C 854.334,778.666 779.001,778.832 703.5,778C 702.173,770.402 702.173,762.902 703.5,755.5 Z"/></g>
<g><path style="opacity:0.949" fill="#fccf7b" d="M 929.5,803.5 C 929.167,803.5 928.833,803.5 928.5,803.5C 928.5,803.167 928.5,802.833 928.5,802.5C 928.5,795.833 928.5,789.167 928.5,782.5C 853.833,782.5 779.167,782.5 704.5,782.5C 704.5,782.167 704.5,781.833 704.5,781.5C 778.334,781.828 852.334,781.495 926.5,780.5C 927.748,781.04 928.915,781.707 930,782.5C 930.821,789.679 930.655,796.679 929.5,803.5 Z"/></g>
<g><path style="opacity:1" fill="#faaa16" d="M 704.5,782.5 C 779.167,782.5 853.833,782.5 928.5,782.5C 928.5,789.167 928.5,795.833 928.5,802.5C 853.833,802.5 779.167,802.5 704.5,802.5C 704.5,795.833 704.5,789.167 704.5,782.5 Z"/></g>
<g><path style="opacity:1" fill="#7ebc76" d="M 619.5,669.5 C 620.499,708.663 620.832,747.996 620.5,787.5C 629.833,787.5 639.167,787.5 648.5,787.5C 659.5,787.5 670.5,787.5 681.5,787.5C 681.168,747.996 681.501,708.663 682.5,669.5C 682.5,709.167 682.5,748.833 682.5,788.5C 682.389,789.117 682.056,789.617 681.5,790C 661.167,790.667 640.833,790.667 620.5,790C 620,789.5 619.5,789 619,788.5C 618.179,749.125 618.345,709.792 619.5,670.5C 619.5,670.167 619.5,669.833 619.5,669.5 Z"/></g>
<g><path style="opacity:1" fill="#fabd4d" d="M 704.5,782.5 C 704.5,789.167 704.5,795.833 704.5,802.5C 779.167,802.5 853.833,802.5 928.5,802.5C 928.5,802.833 928.5,803.167 928.5,803.5C 853.5,803.5 778.5,803.5 703.5,803.5C 703.175,796.313 703.509,789.313 704.5,782.5 Z"/></g>
<g><path style="opacity:0.51" fill="#fcdda4" d="M 704.5,781.5 C 704.5,781.833 704.5,782.167 704.5,782.5C 703.509,789.313 703.175,796.313 703.5,803.5C 778.5,803.5 853.5,803.5 928.5,803.5C 928.833,803.5 929.167,803.5 929.5,803.5C 854.002,804.499 778.335,804.833 702.5,804.5C 701.868,796.427 702.535,788.76 704.5,781.5 Z"/></g>
<g><path style="opacity:0.122" fill="#ede9c9" d="M 562.5,711.5 C 563.499,750.663 563.832,789.996 563.5,829.5C 602.67,829.168 641.67,829.501 680.5,830.5C 641.167,830.5 601.833,830.5 562.5,830.5C 562.5,790.833 562.5,751.167 562.5,711.5 Z"/></g>
<g><path style="opacity:1" fill="#e1cb78" d="M 562.5,830.5 C 601.833,830.5 641.167,830.5 680.5,830.5C 683.427,831.757 685.761,833.757 687.5,836.5C 685.114,835.627 683.114,834.127 681.5,832C 641.665,831.833 601.998,831.333 562.5,830.5 Z"/></g>
<g><path style="opacity:1" fill="#e5cb7d" d="M 687.5,836.5 C 708.833,857.167 729.833,878.167 750.5,899.5C 749.761,899.631 749.094,899.464 748.5,899C 727.58,878.582 707.247,857.749 687.5,836.5 Z"/></g>
<g><path style="opacity:1" fill="#e3aa14" d="M 892.5,848.5 C 899.241,856.976 905.241,865.976 910.5,875.5C 907.007,874.496 905.173,872.163 905,868.5C 902.667,867.5 901,865.833 900,863.5C 896.506,859.178 894.006,854.178 892.5,848.5 Z"/></g>
<g><path style="opacity:1" fill="#f5c567" d="M 511.5,732.5 C 512.499,781.664 512.832,830.997 512.5,880.5C 562.178,879.838 611.511,880.505 660.5,882.5C 610.664,882.832 560.997,882.499 511.5,881.5C 511.5,831.833 511.5,782.167 511.5,732.5 Z"/></g>
<g><path style="opacity:1" fill="#f2bc4b" d="M 913.5,879.5 C 914.167,879.5 914.5,879.833 914.5,880.5C 914.5,880.833 914.5,881.167 914.5,881.5C 899.833,881.5 885.167,881.5 870.5,881.5C 884.833,880.833 899.167,880.167 913.5,879.5 Z"/></g>
<g><path style="opacity:0.271" fill="#f5dba1" d="M 870.5,881.5 C 885.167,881.5 899.833,881.5 914.5,881.5C 914.5,881.833 914.5,882.167 914.5,882.5C 899.452,882.199 884.452,882.532 869.5,883.5C 869.833,882.833 870.167,882.167 870.5,881.5 Z"/></g>
<g><path style="opacity:0.529" fill="#ead18c" d="M 660.5,882.5 C 661.239,882.369 661.906,882.536 662.5,883C 697.085,917.084 731.085,951.584 764.5,986.5C 729.5,952.167 694.833,917.5 660.5,882.5 Z"/></g>
<g><path style="opacity:1" fill="#e4cc80" d="M 750.5,899.5 C 752.5,900.833 754.167,902.5 755.5,904.5C 752.833,903.833 751.167,902.167 750.5,899.5 Z"/></g>
<g><path style="opacity:0.965" fill="#ecd38d" d="M 850.5,830.5 C 861.346,830.172 872.013,830.506 882.5,831.5C 871.495,831.333 860.495,831.5 849.5,832C 822.167,859.333 794.833,886.667 767.5,914C 766.167,914.667 764.833,914.667 763.5,914C 760.223,911.234 757.557,908.067 755.5,904.5C 758.631,907.129 761.631,909.962 764.5,913C 765.167,913.667 765.833,913.667 766.5,913C 794.084,884.914 822.084,857.414 850.5,830.5 Z"/></g>
<g><path style="opacity:0.008" fill="#f4e4ba" d="M 820.5,932.5 C 820.5,933.833 819.833,934.5 818.5,934.5C 818.833,933.5 819.5,932.833 820.5,932.5 Z"/></g>
<g><path style="opacity:0.008" fill="#f5e4bb" d="M 810.5,942.5 C 810.5,943.833 809.833,944.5 808.5,944.5C 808.833,943.5 809.5,942.833 810.5,942.5 Z"/></g>
<g><path style="opacity:0.008" fill="#f4e4b9" d="M 777.5,975.5 C 777.5,976.833 776.833,977.5 775.5,977.5C 775.833,976.5 776.5,975.833 777.5,975.5 Z"/></g>
<g><path style="opacity:0.996" fill="#25871a" d="M 860.5,1045.5 C 874.489,1043.98 880.322,1049.98 878,1063.5C 873.874,1069.97 868.041,1072.14 860.5,1070C 853.526,1066.55 851.026,1061.05 853,1053.5C 855.028,1050.31 857.528,1047.64 860.5,1045.5 Z"/></g>
<g><path style="opacity:0.995" fill="#faae1c" d="M 376.5,1054.5 C 408.321,1050.11 423.154,1063.78 421,1095.5C 419.062,1108.77 411.562,1116.94 398.5,1120C 391.475,1120.41 384.475,1121.08 377.5,1122C 374.227,1122.94 372.394,1125.11 372,1128.5C 371.949,1138.27 371.282,1147.93 370,1157.5C 365.909,1161.3 361.076,1162.47 355.5,1161C 353,1159.83 351.167,1158 350,1155.5C 349.333,1129.83 349.333,1104.17 350,1078.5C 353.157,1064.18 361.991,1056.18 376.5,1054.5 Z M 383.5,1071.5 C 389.182,1071.13 394.348,1072.47 399,1075.5C 406.89,1096.29 399.723,1105.45 377.5,1103C 374.966,1103.52 372.8,1104.68 371,1106.5C 370.863,1096.77 371.529,1087.11 373,1077.5C 373.465,1076.07 374.299,1074.9 375.5,1074C 378.31,1073.22 380.977,1072.38 383.5,1071.5 Z"/></g>
<g><path style="opacity:0.997" fill="#198410" d="M 770.5,1055.5 C 795.169,1055.33 819.836,1055.5 844.5,1056C 849.833,1062.33 849.833,1068.67 844.5,1075C 835.84,1075.5 827.173,1075.67 818.5,1075.5C 818.667,1102.84 818.5,1130.17 818,1157.5C 816.786,1159.05 815.286,1160.22 813.5,1161C 809.833,1161.67 806.167,1161.67 802.5,1161C 799.943,1160.31 798.109,1158.81 797,1156.5C 796.333,1131.17 796.333,1105.83 797,1080.5C 797.833,1078.33 799.333,1076.83 801.5,1076C 791.167,1075.67 780.833,1075.33 770.5,1075C 765.227,1068.48 765.227,1061.98 770.5,1055.5 Z"/></g>
<g><path style="opacity:0.997" fill="#faad1b" d="M 435.5,1084.5 C 439.637,1084.15 443.637,1084.65 447.5,1086C 449.604,1088.04 450.771,1090.54 451,1093.5C 452.907,1089.96 455.74,1087.46 459.5,1086C 465.097,1084.54 470.763,1084.21 476.5,1085C 484.324,1089.94 485.324,1095.94 479.5,1103C 472.553,1104.24 465.553,1105.24 458.5,1106C 456.061,1106.77 454.227,1108.27 453,1110.5C 451.732,1125.45 451.066,1140.45 451,1155.5C 448.929,1159.95 445.429,1161.95 440.5,1161.5C 435.532,1161.94 432.032,1159.94 430,1155.5C 429.333,1133.83 429.333,1112.17 430,1090.5C 431.36,1087.98 433.193,1085.98 435.5,1084.5 Z"/></g>
<g><path style="opacity:0.995" fill="#faae1d" d="M 506.5,1114.5 C 513.2,1114.83 519.866,1114.5 526.5,1113.5C 526.376,1112.89 526.043,1112.56 525.5,1112.5C 524.037,1105.59 519.704,1102.25 512.5,1102.5C 506.237,1104.06 499.904,1104.56 493.5,1104C 487.883,1100.14 487.049,1095.3 491,1089.5C 496.772,1085.26 503.272,1083.6 510.5,1084.5C 531.263,1084.1 543.43,1094.1 547,1114.5C 551.472,1153.04 534.972,1167.87 497.5,1159C 483.478,1151.61 479.311,1140.44 485,1125.5C 490.432,1118.53 497.599,1114.87 506.5,1114.5 Z M 524.5,1127.5 C 525.404,1128.21 525.737,1129.21 525.5,1130.5C 525.909,1142.92 520.242,1147.09 508.5,1143C 503.687,1138.96 503.354,1134.63 507.5,1130C 513.06,1128.47 518.727,1127.63 524.5,1127.5 Z"/></g>
<g><path style="opacity:0.996" fill="#faae1f" d="M 560.5,1084.5 C 563.518,1084.34 566.518,1084.5 569.5,1085C 570.931,1085.47 572.097,1086.3 573,1087.5C 579.944,1104.39 586.611,1121.39 593,1138.5C 597.039,1132.05 599.706,1125.05 601,1117.5C 601.656,1107.45 602.323,1097.45 603,1087.5C 609.067,1083.55 615.067,1083.55 621,1087.5C 623.374,1092.2 624.54,1097.2 624.5,1102.5C 624.561,1122.16 618.228,1139.33 605.5,1154C 604.167,1154.67 602.833,1155.33 601.5,1156C 609.115,1168.41 607.782,1179.74 597.5,1190C 586.744,1195.18 575.41,1196.84 563.5,1195C 554.774,1193.95 550.941,1189.12 552,1180.5C 554.028,1176.87 557.194,1175.2 561.5,1175.5C 566.194,1176 570.86,1176.67 575.5,1177.5C 577.5,1177 579.5,1176.5 581.5,1176C 582.862,1171.05 582.362,1166.22 580,1161.5C 571.138,1140.58 562.471,1119.58 554,1098.5C 552.17,1091.83 554.337,1087.16 560.5,1084.5 Z"/></g>
<g><path style="opacity:0.995" fill="#faae1e" d="M 658.5,1084.5 C 670.021,1082.89 680.687,1085.05 690.5,1091C 698.112,1097.84 700.946,1106.34 699,1116.5C 696.549,1125.49 690.715,1130.99 681.5,1133C 673.218,1134.16 664.884,1134.83 656.5,1135C 658.934,1141.76 663.767,1144.92 671,1144.5C 675.812,1143.67 680.645,1143 685.5,1142.5C 695.23,1143.16 697.73,1147.83 693,1156.5C 686.902,1160.86 680.068,1162.53 672.5,1161.5C 645.858,1162.19 632.858,1149.19 633.5,1122.5C 632.377,1103.34 640.711,1090.67 658.5,1084.5 Z M 665.5,1101.5 C 675.539,1101.71 679.373,1106.71 677,1116.5C 676.097,1117.7 674.931,1118.53 673.5,1119C 668.201,1119.93 662.867,1120.6 657.5,1121C 657,1121.5 656.5,1122 656,1122.5C 655.315,1115.76 656.815,1109.59 660.5,1104C 662.315,1103.24 663.981,1102.41 665.5,1101.5 Z"/></g>
<g><path style="opacity:0.997" fill="#faad1b" d="M 718.5,1084.5 C 722.637,1084.15 726.637,1084.65 730.5,1086C 732.604,1088.04 733.771,1090.54 734,1093.5C 735.907,1089.96 738.74,1087.46 742.5,1086C 748.097,1084.54 753.763,1084.21 759.5,1085C 767.324,1089.94 768.324,1095.94 762.5,1103C 755.553,1104.24 748.553,1105.24 741.5,1106C 739.061,1106.77 737.227,1108.27 736,1110.5C 734.732,1125.45 734.066,1140.45 734,1155.5C 731.929,1159.95 728.429,1161.95 723.5,1161.5C 718.532,1161.94 715.032,1159.94 713,1155.5C 712.333,1133.83 712.333,1112.17 713,1090.5C 714.36,1087.98 716.193,1085.98 718.5,1084.5 Z"/></g>
<g><path style="opacity:0.997" fill="#208515" d="M 860.5,1084.5 C 864.182,1084.33 867.848,1084.5 871.5,1085C 873.667,1085.83 875.167,1087.33 876,1089.5C 876.667,1111.83 876.667,1134.17 876,1156.5C 875.167,1158.67 873.667,1160.17 871.5,1161C 867.833,1161.67 864.167,1161.67 860.5,1161C 857.572,1159.74 855.739,1157.57 855,1154.5C 854.333,1133.5 854.333,1112.5 855,1091.5C 855.938,1088.4 857.772,1086.07 860.5,1084.5 Z"/></g>
<g><path style="opacity:0.997" fill="#1d8413" d="M 912.5,1084.5 C 922.554,1083.13 931.887,1084.96 940.5,1090C 942.709,1091.87 944.542,1094.04 946,1096.5C 950.008,1090.58 955.508,1086.74 962.5,1085C 972.55,1083.13 981.883,1084.8 990.5,1090C 995.043,1094.59 997.876,1100.09 999,1106.5C 999.667,1123.17 999.667,1139.83 999,1156.5C 994.904,1161.21 989.737,1162.71 983.5,1161C 981.714,1160.22 980.214,1159.05 979,1157.5C 977.698,1142.26 977.031,1126.93 977,1111.5C 974.099,1103.06 968.599,1100.89 960.5,1105C 959.54,1106.42 958.707,1107.92 958,1109.5C 956.747,1125.12 956.08,1140.79 956,1156.5C 955.167,1158.67 953.667,1160.17 951.5,1161C 947.044,1161.87 942.711,1161.53 938.5,1160C 937.299,1159.1 936.465,1157.93 936,1156.5C 935.667,1142.17 935.333,1127.83 935,1113.5C 933.533,1104.35 928.366,1101.18 919.5,1104C 917.106,1105.95 915.606,1108.45 915,1111.5C 914.969,1126.93 914.302,1142.26 913,1157.5C 907.697,1162.01 901.864,1162.68 895.5,1159.5C 894.416,1158.33 893.583,1157 893,1155.5C 892.07,1137.79 892.404,1120.12 894,1102.5C 896.878,1093 903.044,1087 912.5,1084.5 Z"/></g>
<g><path style="opacity:0.996" fill="#208516" d="M 1038.5,1084.5 C 1050.02,1082.89 1060.69,1085.05 1070.5,1091C 1078.11,1097.84 1080.95,1106.34 1079,1116.5C 1076.55,1125.49 1070.72,1130.99 1061.5,1133C 1053.22,1134.16 1044.88,1134.83 1036.5,1135C 1038.93,1141.76 1043.77,1144.92 1051,1144.5C 1055.81,1143.67 1060.65,1143 1065.5,1142.5C 1075.23,1143.16 1077.73,1147.83 1073,1156.5C 1066.9,1160.86 1060.07,1162.53 1052.5,1161.5C 1025.86,1162.19 1012.86,1149.19 1013.5,1122.5C 1012.38,1103.34 1020.71,1090.67 1038.5,1084.5 Z M 1045.5,1101.5 C 1055.54,1101.71 1059.37,1106.71 1057,1116.5C 1056.1,1117.7 1054.93,1118.53 1053.5,1119C 1048.2,1119.93 1042.87,1120.6 1037.5,1121C 1037,1121.5 1036.5,1122 1036,1122.5C 1035.31,1115.76 1036.81,1109.59 1040.5,1104C 1042.31,1103.24 1043.98,1102.41 1045.5,1101.5 Z"/></g>
<g><path style="opacity:0.997" fill="#228617" d="M 1112.5,1084.5 C 1121.66,1083.91 1130.66,1084.74 1139.5,1087C 1145.68,1090.21 1147.51,1095.05 1145,1101.5C 1143.16,1103.71 1140.83,1105.04 1138,1105.5C 1132.42,1103.98 1126.75,1102.64 1121,1101.5C 1113.91,1101.89 1112.08,1105.05 1115.5,1111C 1122.42,1113.86 1129.42,1116.53 1136.5,1119C 1149.1,1127.09 1151.93,1137.93 1145,1151.5C 1140.26,1156.62 1134.43,1159.79 1127.5,1161C 1118.45,1161.85 1109.45,1161.51 1100.5,1160C 1090.78,1157.39 1087.94,1151.55 1092,1142.5C 1094.92,1140.61 1098.08,1140.11 1101.5,1141C 1106.71,1142.7 1112.05,1143.87 1117.5,1144.5C 1125.91,1144.63 1128.24,1141.13 1124.5,1134C 1116.78,1131.49 1109.12,1128.82 1101.5,1126C 1090.46,1116.81 1088.63,1105.97 1096,1093.5C 1100.79,1089.03 1106.29,1086.03 1112.5,1084.5 Z"/></g>
<g><path style="opacity:0.471" fill="#fccd89" d="M 525.5,1112.5 C 526.043,1112.56 526.376,1112.89 526.5,1113.5C 519.866,1114.5 513.2,1114.83 506.5,1114.5C 512.833,1113.83 519.167,1113.17 525.5,1112.5 Z"/></g>
<g><path style="opacity:0.196" fill="#fcd7a4" d="M 524.5,1127.5 C 525.472,1126.25 526.139,1126.58 526.5,1128.5C 526.457,1129.42 526.124,1130.08 525.5,1130.5C 525.737,1129.21 525.404,1128.21 524.5,1127.5 Z"/></g>
</svg>
